<?xml version="1.0" encoding="UTF-8" standalone="no"?>
<!-- Created with Inkscape (http://www.inkscape.org/) -->

<svg
   xmlns:dc="http://purl.org/dc/elements/1.1/"
   xmlns:cc="http://creativecommons.org/ns#"
   xmlns:rdf="http://www.w3.org/1999/02/22-rdf-syntax-ns#"
   xmlns:svg="http://www.w3.org/2000/svg"
   xmlns="http://www.w3.org/2000/svg"
   xmlns:sodipodi="http://sodipodi.sourceforge.net/DTD/sodipodi-0.dtd"
   xmlns:inkscape="http://www.inkscape.org/namespaces/inkscape"
   width="210mm"
   height="297mm"
   viewBox="0 0 210 297"
   version="1.1"
   id="svg8"
   inkscape:version="0.92.5 (2060ec1f9f, 2020-04-08)"
   sodipodi:docname="distances.svg">
  <defs
     id="defs2">
    <marker
       inkscape:stockid="Arrow1Mend"
       orient="auto"
       refY="0.0"
       refX="0.0"
       id="Arrow1Mend"
       style="overflow:visible;"
       inkscape:isstock="true">
      <path
         id="path1490"
         d="M 0.0,0.0 L 5.0,-5.0 L -12.5,0.0 L 5.0,5.0 L 0.0,0.0 z "
         style="fill-rule:evenodd;stroke:#000000;stroke-width:1pt;stroke-opacity:1;fill:#000000;fill-opacity:1"
         transform="scale(0.4) rotate(180) translate(10,0)" />
    </marker>
    <marker
       inkscape:stockid="Arrow1Mstart"
       orient="auto"
       refY="0.0"
       refX="0.0"
       id="marker1744"
       style="overflow:visible"
       inkscape:isstock="true">
      <path
         id="path1487"
         d="M 0.0,0.0 L 5.0,-5.0 L -12.5,0.0 L 5.0,5.0 L 0.0,0.0 z "
         style="fill-rule:evenodd;stroke:#000000;stroke-width:1pt;stroke-opacity:1;fill:#000000;fill-opacity:1"
         transform="scale(0.4) translate(10,0)" />
    </marker>
    <marker
       inkscape:isstock="true"
       style="overflow:visible"
       id="marker6701"
       refX="0.0"
       refY="0.0"
       orient="auto"
       inkscape:stockid="Arrow1Mstart">
      <path
         transform="scale(0.4) translate(10,0)"
         style="fill-rule:evenodd;stroke:#e2b611;stroke-width:1pt;stroke-opacity:1;fill:#e2b611;fill-opacity:1"
         d="M 0.0,0.0 L 5.0,-5.0 L -12.5,0.0 L 5.0,5.0 L 0.0,0.0 z "
         id="path6699" />
    </marker>
    <marker
       inkscape:stockid="Arrow1Mstart"
       orient="auto"
       refY="0.0"
       refX="0.0"
       id="marker6637"
       style="overflow:visible"
       inkscape:isstock="true"
       inkscape:collect="always">
      <path
         id="path6635"
         d="M 0.0,0.0 L 5.0,-5.0 L -12.5,0.0 L 5.0,5.0 L 0.0,0.0 z "
         style="fill-rule:evenodd;stroke:#e22011;stroke-width:1pt;stroke-opacity:1;fill:#e22011;fill-opacity:1"
         transform="scale(0.4) translate(10,0)" />
    </marker>
    <marker
       inkscape:isstock="true"
       style="overflow:visible"
       id="marker6599"
       refX="0.0"
       refY="0.0"
       orient="auto"
       inkscape:stockid="Arrow1Mstart"
       inkscape:collect="always">
      <path
         transform="scale(0.4) translate(10,0)"
         style="fill-rule:evenodd;stroke:#1120e2;stroke-width:1pt;stroke-opacity:1;fill:#1120e2;fill-opacity:1"
         d="M 0.0,0.0 L 5.0,-5.0 L -12.5,0.0 L 5.0,5.0 L 0.0,0.0 z "
         id="path6597" />
    </marker>
    <marker
       inkscape:stockid="Arrow1Mstart"
       orient="auto"
       refY="0.0"
       refX="0.0"
       id="Arrow1Mstart"
       style="overflow:visible"
       inkscape:isstock="true"
       inkscape:collect="always">
      <path
         id="path873"
         d="M 0.0,0.0 L 5.0,-5.0 L -12.5,0.0 L 5.0,5.0 L 0.0,0.0 z "
         style="fill-rule:evenodd;stroke:#11b6e2;stroke-width:1pt;stroke-opacity:1;fill:#11b6e2;fill-opacity:1"
         transform="scale(0.4) translate(10,0)" />
    </marker>
    <marker
       inkscape:isstock="true"
       style="overflow:visible"
       id="marker2244"
       refX="0.0"
       refY="0.0"
       orient="auto"
       inkscape:stockid="Arrow1Lstart">
      <path
         transform="scale(0.8) translate(12.5,0)"
         style="fill-rule:evenodd;stroke:#000000;stroke-width:1pt;stroke-opacity:1;fill:#000000;fill-opacity:1"
         d="M 0.0,0.0 L 5.0,-5.0 L -12.5,0.0 L 5.0,5.0 L 0.0,0.0 z "
         id="path2242" />
    </marker>
    <marker
       inkscape:stockid="Arrow1Lstart"
       orient="auto"
       refY="0"
       refX="0"
       id="Arrow1Lstart-6"
       style="overflow:visible"
       inkscape:isstock="true">
      <path
         inkscape:connector-curvature="0"
         id="path867-9"
         d="M 0,0 5,-5 -12.5,0 5,5 Z"
         style="fill:#000000;fill-opacity:1;fill-rule:evenodd;stroke:#000000;stroke-width:1.00000003pt;stroke-opacity:1"
         transform="matrix(0.8,0,0,0.8,10,0)" />
    </marker>
    <marker
       inkscape:isstock="true"
       style="overflow:visible"
       id="marker2244-2"
       refX="0"
       refY="0"
       orient="auto"
       inkscape:stockid="Arrow1Lstart">
      <path
         inkscape:connector-curvature="0"
         transform="matrix(0.8,0,0,0.8,10,0)"
         style="fill:#000000;fill-opacity:1;fill-rule:evenodd;stroke:#000000;stroke-width:1.00000003pt;stroke-opacity:1"
         d="M 0,0 5,-5 -12.5,0 5,5 Z"
         id="path2242-4" />
    </marker>
  </defs>
  <sodipodi:namedview
     id="base"
     pagecolor="#ffffff"
     bordercolor="#666666"
     borderopacity="1.0"
     inkscape:pageopacity="0.0"
     inkscape:pageshadow="2"
     inkscape:zoom="0.7"
     inkscape:cx="627.46768"
     inkscape:cy="719.84798"
     inkscape:document-units="mm"
     inkscape:current-layer="g1386"
     showgrid="false"
     inkscape:window-width="1920"
     inkscape:window-height="1015"
     inkscape:window-x="1080"
     inkscape:window-y="644"
     inkscape:window-maximized="1" />
  <metadata
     id="metadata5">
    <rdf:RDF>
      <cc:Work
         rdf:about="">
        <dc:format>image/svg+xml</dc:format>
        <dc:type
           rdf:resource="http://purl.org/dc/dcmitype/StillImage" />
        <dc:title />
      </cc:Work>
    </rdf:RDF>
  </metadata>
  <g
     inkscape:label="Layer 1"
     inkscape:groupmode="layer"
     id="layer1">
    <rect
       style="opacity:0.99;fill:#ffffff;fill-opacity:1;fill-rule:nonzero;stroke:none;stroke-width:1.42616403;stroke-miterlimit:4;stroke-dasharray:none;stroke-dashoffset:0;stroke-opacity:1"
       id="rect1470"
       width="304.64697"
       height="168.11255"
       x="-8.8198938"
       y="52.448372"
       inkscape:export-xdpi="300"
       inkscape:export-ydpi="300" />
    <circle
       style="opacity:1;fill:#ffffff;fill-opacity:1;fill-rule:nonzero;stroke:#000000;stroke-width:1.5;stroke-miterlimit:4;stroke-dasharray:none;stroke-dashoffset:0;stroke-opacity:1"
       id="path817"
       cx="75.298256"
       cy="124.06223"
       r="62.127892" />
    <circle
       style="opacity:1;fill:#000000;fill-opacity:1;fill-rule:nonzero;stroke:none;stroke-width:2.69230771;stroke-miterlimit:4;stroke-dasharray:none;stroke-dashoffset:0;stroke-opacity:1"
       id="path842"
       cx="137.49683"
       cy="124.04822"
       r="3.3072917" />
    <circle
       style="opacity:1;fill:#000000;fill-opacity:1;fill-rule:nonzero;stroke:none;stroke-width:2.69230771;stroke-miterlimit:4;stroke-dasharray:none;stroke-dashoffset:0;stroke-opacity:1"
       id="path842-9"
       cx="75.307755"
       cy="186.58391"
       r="3.3072917" />
    <circle
       style="opacity:1;fill:#000000;fill-opacity:1;fill-rule:nonzero;stroke:none;stroke-width:2.69230771;stroke-miterlimit:4;stroke-dasharray:none;stroke-dashoffset:0;stroke-opacity:1"
       id="path842-4"
       cx="13.173317"
       cy="124.05779"
       r="3.3072917" />
    <path
       style="fill:none;stroke:#1120e2;stroke-width:1;stroke-linecap:butt;stroke-linejoin:miter;stroke-miterlimit:4;stroke-dasharray:none;stroke-opacity:1;marker-start:url(#marker6599)"
       d="M 17.33767,122.59945 H 132.53081"
       id="path865"
       inkscape:connector-curvature="0"
       sodipodi:nodetypes="cc" />
    <path
       style="fill:none;stroke:#11b6e2;stroke-width:1;stroke-linecap:butt;stroke-linejoin:miter;stroke-miterlimit:4;stroke-dasharray:none;stroke-opacity:1;marker-start:url(#Arrow1Mstart)"
       d="M 78.151524,182.73509 134.54537,127.8112"
       id="path865-2"
       inkscape:connector-curvature="0"
       sodipodi:nodetypes="cc" />
    <path
       style="opacity:1;fill:none;fill-opacity:1;fill-rule:nonzero;stroke:#e22011;stroke-width:1;stroke-miterlimit:4;stroke-dasharray:none;stroke-dashoffset:0;stroke-opacity:1;marker-start:url(#marker6637)"
       id="path2234"
       sodipodi:type="arc"
       sodipodi:cx="-76.322456"
       sodipodi:cy="126.53615"
       sodipodi:rx="74.533997"
       sodipodi:ry="74.533997"
       sodipodi:start="0"
       sodipodi:end="3.1572164"
       sodipodi:open="true"
       d="m -1.7884598,126.53615 a 74.533997,74.533997 0 0 1 -37.6036642,64.74154 74.533997,74.533997 0 0 1 -74.867626,-0.58487 74.533997,74.533997 0 0 1 -36.58761,-65.32112"
       transform="scale(-1,1)" />
    <flowRoot
       xml:space="preserve"
       id="flowRoot6757"
       style="font-style:normal;font-weight:normal;font-size:40px;line-height:0;font-family:sans-serif;letter-spacing:0px;word-spacing:0px;fill:#000000;fill-opacity:1;stroke:none"
       transform="matrix(0.26458333,0,0,0.26458333,-26.193752,1.446034e-8)"><flowRegion
         id="flowRegion6759"><rect
           id="rect6761"
           width="160.71428"
           height="97.14286"
           x="635"
           y="448.94824" /></flowRegion><flowPara
         id="flowPara6763"
         style="font-weight:bold">A</flowPara></flowRoot>    <flowRoot
       xml:space="preserve"
       id="flowRoot6765"
       style="font-style:normal;font-weight:normal;font-size:40px;line-height:0;font-family:sans-serif;letter-spacing:0px;word-spacing:0px;fill:#000000;fill-opacity:1;stroke:none"
       transform="matrix(0.26458333,0,0,0.26458333,10.469938,38.931548)"><flowRegion
         id="flowRegion6767"><rect
           id="rect6769"
           width="190"
           height="116.42857"
           x="225"
           y="525.37683" /></flowRegion><flowPara
         id="flowPara6771"
         style="font-weight:bold">B</flowPara></flowRoot>    <flowRoot
       xml:space="preserve"
       id="flowRoot6865"
       style="font-style:normal;font-weight:normal;font-size:40px;line-height:0;font-family:sans-serif;letter-spacing:0px;word-spacing:0px;fill:#000000;fill-opacity:1;stroke:none"
       transform="matrix(0.26458333,0,0,0.26458333,-52.27411,-21.733631)"><flowRegion
         id="flowRegion6867"><rect
           id="rect6869"
           width="201.42857"
           height="130"
           x="210"
           y="526.80542" /></flowRegion><flowPara
         id="flowPara6871"
         style="font-weight:bold">C</flowPara></flowRoot>    <rect
       style="opacity:1;fill:#ffffff;fill-opacity:1;fill-rule:nonzero;stroke:none;stroke-width:1.03203142;stroke-miterlimit:4;stroke-dasharray:none;stroke-dashoffset:0;stroke-opacity:1"
       id="rect6956"
       width="14.09847"
       height="12.027131"
       x="135.45639"
       y="150.94078" />
    <path
       style="opacity:1;fill:none;fill-opacity:1;fill-rule:nonzero;stroke:#e2b611;stroke-width:1;stroke-miterlimit:4;stroke-dasharray:none;stroke-dashoffset:0;stroke-opacity:1;marker-start:url(#marker6701)"
       id="path2234-7"
       sodipodi:type="arc"
       sodipodi:cx="-74.395287"
       sodipodi:cy="126.20491"
       sodipodi:rx="68.000366"
       sodipodi:ry="68.000366"
       sodipodi:start="1.5970855"
       sodipodi:end="3.1572164"
       sodipodi:open="true"
       d="M -76.182754,194.18178 A 68.000366,68.000366 0 0 1 -142.38735,125.14253"
       transform="scale(-1,1)" />
    <g
       id="g1218"
       transform="matrix(1.7264808,0,0,1.7264808,27.456514,-82.639849)">
      <g
         style="font-style:normal;font-variant:normal;font-weight:normal;font-stretch:normal;letter-spacing:normal;word-spacing:normal;text-anchor:start;fill:none;fill-opacity:1;fill-rule:evenodd;stroke:#000000;stroke-linecap:butt;stroke-linejoin:miter;stroke-miterlimit:10.43299961;stroke-dasharray:none;stroke-dashoffset:0;stroke-opacity:1"
         id="g2773"
         transform="matrix(0.3,0,0,-0.3,-52.5,222.75)"
         xml:space="preserve"
         stroke-miterlimit="10.433"
         font-style="normal"
         font-variant="normal"
         font-weight="normal"
         font-stretch="normal"
         font-size-adjust="none"
         letter-spacing="normal"
         word-spacing="normal"><path
           style="fill:#11b6e2;fill-opacity:1;stroke-width:0"
           inkscape:connector-curvature="0"
           d="m 473.54901,382.83359 v 0 0.005 0.005 0.005 0.005 0.005 0.009 0.009 l -0.005,0.009 v 0.009 l -0.005,0.009 v 0.009 l -0.005,0.0137 -0.005,0.009 -0.005,0.009 -0.005,0.0137 -0.009,0.009 -0.005,0.0137 -0.009,0.009 -0.009,0.0137 -0.009,0.009 -0.009,0.005 -0.005,0.005 -0.005,0.005 -0.009,0.005 -0.005,0.005 -0.009,0.005 -0.005,0.005 -0.009,0.005 -0.005,0.005 -0.009,0.005 -0.009,0.005 h -0.009 l -0.009,0.005 -0.009,0.005 h -0.009 l -0.0137,0.005 h -0.009 l -0.009,0.005 h -0.0137 -0.0137 l -0.009,0.005 h -0.0137 -0.0137 -0.0137 c -0.34344,0 -2.50946,-0.20606 -2.8987,-0.25186 -0.18317,-0.0229 -0.32055,-0.13738 -0.32055,-0.43503 0,-0.27476 0.20607,-0.27476 0.54952,-0.27476 1.09445,0 1.14025,-0.1557 1.14025,-0.38466 l -0.0641,-0.45793 -1.3738,-5.40816 c -0.40755,0.84259 -1.07613,1.4608 -2.09732,1.4608 l 0.0229,-0.50373 c 1.47911,0 1.79967,-1.86835 1.79967,-2.00115 0,-0.14654 -0.0412,-0.27934 -0.0641,-0.39382 l -1.14482,-4.47399 c -0.11448,-0.40755 -0.11448,-0.44877 -0.45793,-0.84259 -0.99829,-1.25473 -1.93705,-1.61649 -2.57357,-1.61649 -1.14025,0 -1.4608,1.25015 -1.4608,2.14311 0,1.14025 0.72811,3.94278 1.25473,4.99602 0.70521,1.34632 1.73556,2.18891 2.64684,2.18891 l -0.0229,0.50373 c -2.66973,0 -5.49517,-3.35206 -5.49517,-6.68579 0,-2.14769 1.25015,-3.64971 3.0315,-3.64971 0.45336,0 1.59818,0.0962 2.96282,1.71266 0.18775,-0.96165 0.97997,-1.71266 2.07442,-1.71266 0.80138,0 1.328,0.52204 1.68977,1.25473 0.38924,0.8197 0.68689,2.21639 0.68689,2.26218 0,0.22896 -0.20607,0.22896 -0.27018,0.22896 -0.22896,0 -0.25186,-0.0962 -0.32055,-0.41671 -0.38924,-1.4837 -0.80138,-2.82543 -1.73556,-2.82543 -0.61362,0 -0.68689,0.59073 -0.68689,1.04866 0,0.54493 0.0458,0.70979 0.13738,1.09445 z"
           id="path1167" /><path
           style="fill:#11b6e2;fill-opacity:1;stroke-width:0"
           inkscape:connector-curvature="0"
           d="m 476.93312,365.76194 -0.0504,-0.0824 -0.0504,-0.0779 -0.055,-0.0733 -0.0504,-0.0733 -0.0504,-0.0687 -0.055,-0.0641 -0.0504,-0.0641 -0.055,-0.0641 -0.0504,-0.0595 -0.0549,-0.055 -0.055,-0.0549 -0.0549,-0.055 -0.055,-0.0458 -0.055,-0.0504 -0.0595,-0.0458 -0.0595,-0.0412 -0.0595,-0.0412 -0.0595,-0.0366 -0.0595,-0.0366 -0.0641,-0.0321 -0.0641,-0.0321 -0.0687,-0.0275 -0.0687,-0.0275 -0.0687,-0.0229 -0.0733,-0.0229 -0.0733,-0.0183 -0.0778,-0.0183 -0.0779,-0.0137 -0.0779,-0.0137 -0.0824,-0.0137 -0.087,-0.009 -0.087,-0.005 c -0.1557,-0.0137 -0.36176,-0.0137 -0.36176,-0.33886 0,-0.16944 0.14195,-0.23355 0.2198,-0.23355 0.41672,0 0.94334,0.0641 1.37379,0.0641 0.50831,0 1.16773,-0.0641 1.64397,-0.0641 0.0824,0 0.31598,0 0.31598,0.34803 0,0.21065 -0.20607,0.22438 -0.2656,0.22438 -0.12822,0.0229 -0.70522,0.0504 -0.70522,0.48083 0,0.19233 0.16486,0.46251 0.24271,0.60447 l 1.27304,1.97826 h 4.56557 l -0.0779,0.57699 h -4.10305 l 3.35205,5.21583 0.751,-5.21583 0.0779,-0.57699 0.38466,-2.64684 c -0.0641,-0.16027 -0.16485,-0.41672 -1.09903,-0.41672 -0.19691,0 -0.41672,0 -0.41672,-0.3526 0,-0.0641 0.0412,-0.21981 0.25187,-0.21981 0.46251,0 1.59359,0.0641 2.06068,0.0641 0.28392,0 0.65026,-0.0137 0.94334,-0.0137 0.28392,-0.0229 0.62279,-0.0504 0.9067,-0.0504 0.21065,0 0.31597,0.12822 0.31597,0.33429 0,0.23812 -0.18775,0.23812 -0.44419,0.23812 -0.92044,0 -0.95707,0.12822 -1.00745,0.51289 l -1.40126,9.8455 c -0.0504,0.32971 -0.0824,0.4442 -0.38009,0.4442 -0.30681,0 -0.40297,-0.14196 -0.54493,-0.36177 z"
           id="path1169" /><path
           style="fill:#11b6e2;fill-opacity:1;stroke-width:0"
           inkscape:connector-curvature="0"
           d="m 490.42375,365.08878 -0.0137,-0.0504 -0.0137,-0.0458 -0.0137,-0.0458 -0.0137,-0.0458 -0.009,-0.0366 -0.0137,-0.0412 -0.0137,-0.0366 -0.0183,-0.0321 -0.0137,-0.032 -0.0183,-0.0321 -0.0229,-0.0275 -0.0229,-0.0275 -0.0229,-0.0229 -0.0275,-0.0229 -0.0275,-0.0229 -0.032,-0.0183 -0.0366,-0.0183 -0.0366,-0.0183 -0.0458,-0.0137 -0.0458,-0.0137 -0.0504,-0.0137 -0.0275,-0.005 -0.0275,-0.005 -0.0275,-0.005 -0.0321,-0.005 -0.0321,-0.005 -0.032,-0.005 -0.0366,-0.005 h -0.0321 l -0.0366,-0.005 -0.0412,-0.005 h -0.0366 l -0.0412,-0.005 h -0.0412 l -0.0458,-0.005 h -0.0458 -0.0458 l -0.0504,-0.005 h -0.0504 -0.0504 -0.055 -0.0549 -0.055 c -0.26559,0 -0.47166,0 -0.47166,-0.33886 0,-0.23355 0.18317,-0.23355 0.47166,-0.23355 h 6.17291 c 2.68347,0 4.74416,1.83172 4.74416,3.41158 0,1.14025 -1.03492,2.11106 -2.73385,2.28508 1.93247,0.34802 3.54897,1.56612 3.54897,2.93075 0,1.2181 -1.22726,2.27134 -3.30168,2.27134 l -0.26102,-0.57241 c 1.63481,0 1.99657,-1.07614 1.99657,-1.67603 0,-1.29594 -1.45164,-2.76132 -3.59017,-2.76132 H 492.979 l -0.11448,-0.45335 h 3.37953 c 1.49743,0 2.079,-0.98455 2.079,-1.90957 0,-1.57986 -1.62107,-2.95366 -3.54438,-2.95366 h -2.57357 c -0.49456,0 -0.5083,0.0229 -0.5083,0.16486 0,0.0137 0,0.0916 0.0641,0.32971 l 1.10361,4.36866 0.11448,0.45335 0.97082,3.89241 c 0.11906,0.49456 0.14195,0.54494 0.80595,0.54494 h 2.42704 l 0.26102,0.57241 h -5.81114 c -0.30224,0 -0.50831,0 -0.50831,-0.35261 0,-0.2198 0.19234,-0.2198 0.50831,-0.2198 0.0137,0 0.32055,0 0.60447,-0.0366 0.33886,-0.0275 0.36634,-0.0641 0.36634,-0.22438 0,-0.0275 0,-0.10533 -0.0641,-0.34803 z"
           id="path1171" /><polyline
           transform="matrix(0.45793058,0,0,0.45793058,250.43607,180.19473)"
           style="fill:#000000;fill-rule:nonzero;stroke-width:0"
           points="462,386 552.24,386 552.24,388.04 462,388.04 "
           id="polyline1173" /><path
           style="fill:#1120e2;fill-opacity:1;stroke-width:0"
           inkscape:connector-curvature="0"
           d="m 473.71386,351.7859 v 0 0.005 0 0.009 0.005 0.005 0.009 0.009 l -0.005,0.009 v 0.009 l -0.005,0.009 v 0.009 l -0.005,0.009 -0.005,0.0137 -0.005,0.009 -0.005,0.0137 -0.009,0.009 -0.005,0.0137 -0.009,0.009 -0.009,0.009 -0.009,0.0137 -0.009,0.005 -0.005,0.005 -0.005,0.005 -0.009,0.005 -0.005,0.005 -0.009,0.005 -0.005,0.005 -0.009,0.005 -0.009,0.005 -0.005,0.005 h -0.009 l -0.009,0.005 -0.009,0.005 -0.009,0.005 h -0.009 l -0.0137,0.005 h -0.009 l -0.0137,0.005 h -0.009 -0.0137 -0.009 l -0.0137,0.005 h -0.0137 -0.0137 c -0.34345,0 -2.50946,-0.21065 -2.8987,-0.25186 -0.18317,-0.0229 -0.32055,-0.13738 -0.32055,-0.43504 0,-0.27475 0.20607,-0.27475 0.54951,-0.27475 1.09446,0 1.14025,-0.1557 1.14025,-0.38467 l -0.0641,-0.45793 -1.37379,-5.40816 c -0.40756,0.8426 -1.07614,1.4608 -2.09732,1.4608 l 0.0229,-0.50372 c 1.47912,0 1.79967,-1.86836 1.79967,-2.00116 0,-0.14654 -0.0412,-0.27934 -0.0641,-0.39382 l -1.14483,-4.47398 c -0.11448,-0.40756 -0.11448,-0.44877 -0.45793,-0.84259 -0.99829,-1.25473 -1.93704,-1.6165 -2.57357,-1.6165 -1.14024,0 -1.4608,1.25015 -1.4608,2.14312 0,1.14025 0.72811,3.94278 1.25015,4.99602 0.7098,1.34632 1.74014,2.18891 2.65142,2.18891 l -0.0229,0.50372 c -2.66974,0 -5.49517,-3.35205 -5.49517,-6.68578 0,-2.1477 1.25015,-3.64971 3.0315,-3.64971 0.45335,0 1.59818,0.0962 2.96281,1.71266 0.18775,-0.96165 0.97997,-1.71266 2.07443,-1.71266 0.80137,0 1.32342,0.52204 1.68976,1.25473 0.38924,0.8197 0.6869,2.21638 0.6869,2.2576 0,0.22896 -0.20607,0.22896 -0.27018,0.22896 -0.22897,0 -0.25186,-0.0916 -0.32513,-0.41214 -0.38467,-1.48369 -0.80138,-2.82543 -1.73098,-2.82543 -0.61363,0 -0.6869,0.59073 -0.6869,1.04866 0,0.54494 0.0458,0.7098 0.13738,1.09446 z"
           id="path1175" /><path
           style="fill:#1120e2;fill-opacity:1;stroke-width:0"
           inkscape:connector-curvature="0"
           d="m 477.09797,334.6593 -0.0504,-0.0824 -0.0504,-0.0733 -0.055,-0.0779 -0.0504,-0.0687 -0.0504,-0.0733 -0.0549,-0.0641 -0.0504,-0.0641 -0.055,-0.0641 -0.0504,-0.0595 -0.0549,-0.0549 -0.055,-0.055 -0.055,-0.0504 -0.0549,-0.0504 -0.055,-0.0504 -0.0595,-0.0412 -0.0595,-0.0458 -0.0595,-0.0366 -0.0595,-0.0412 -0.0595,-0.0321 -0.0641,-0.0366 -0.0687,-0.0275 -0.0641,-0.0321 -0.0687,-0.0229 -0.0687,-0.0275 -0.0733,-0.0183 -0.0733,-0.0229 -0.0778,-0.0183 -0.0778,-0.0137 -0.0778,-0.0137 -0.0824,-0.009 -0.087,-0.009 -0.087,-0.009 c -0.1557,-0.0137 -0.36177,-0.0137 -0.36177,-0.33429 0,-0.17401 0.14196,-0.23812 0.21981,-0.23812 0.41671,0 0.94333,0.0641 1.37379,0.0641 0.5083,0 1.16772,-0.0641 1.64397,-0.0641 0.0824,0 0.31597,0 0.31597,0.3526 0,0.20607 -0.20607,0.21981 -0.2656,0.21981 -0.12822,0.0229 -0.70521,0.0504 -0.70521,0.48083 0,0.19233 0.16485,0.46251 0.2427,0.60904 l 1.27305,1.97369 h 4.56557 l -0.0779,0.57699 h -4.10306 l 3.34747,5.21583 0.75559,-5.21583 0.0779,-0.57699 0.38466,-2.64684 c -0.0641,-0.16028 -0.16486,-0.41672 -1.10361,-0.41672 -0.19233,0 -0.41214,0 -0.41214,-0.34803 0,-0.0687 0.0412,-0.22438 0.25186,-0.22438 0.46251,0 1.5936,0.0641 2.06069,0.0641 0.28392,0 0.65026,-0.0137 0.94334,-0.0137 0.28391,-0.0229 0.62278,-0.0504 0.9067,-0.0504 0.20607,0 0.31597,0.12822 0.31597,0.33886 0,0.23355 -0.18775,0.23355 -0.44419,0.23355 -0.92502,0 -0.95708,0.12822 -1.00745,0.51746 l -1.40127,9.84551 c -0.0504,0.32513 -0.0824,0.43961 -0.38008,0.43961 -0.30681,0 -0.40298,-0.14196 -0.54494,-0.36176 z"
           id="path1177" /><path
           style="fill:#1120e2;fill-opacity:1;stroke-width:0"
           inkscape:connector-curvature="0"
           d="m 501.00653,343.7538 v 0.005 l -0.005,0.009 v 0.009 0.009 0.009 l -0.005,0.005 v 0.009 l -0.005,0.009 v 0.009 l -0.005,0.009 -0.005,0.009 -0.005,0.009 -0.005,0.009 -0.005,0.005 -0.005,0.009 -0.005,0.009 -0.009,0.009 -0.005,0.005 -0.009,0.009 -0.005,0.005 -0.009,0.009 -0.009,0.005 -0.009,0.005 -0.009,0.005 -0.009,0.005 -0.0137,0.005 -0.009,0.005 -0.0137,0.005 h -0.005 -0.009 l -0.005,0.005 h -0.009 -0.005 -0.009 -0.005 -0.009 c -0.11448,0 -0.14196,-0.0366 -0.28392,-0.19234 l -1.16772,-1.23183 c -0.14196,0.19233 -1.0395,1.42417 -2.99945,1.42417 -3.87867,0 -7.67491,-3.43448 -7.67491,-7.0384 0,-2.60104 2.04695,-4.50146 4.89985,-4.50146 0.86091,0 2.3904,0.1786 4.03437,1.56613 1.25931,1.06698 1.61192,2.45451 1.61192,2.58273 0,0.20606 -0.19233,0.20606 -0.27018,0.20606 -0.21065,0 -0.23812,-0.0778 -0.2885,-0.24728 -0.65026,-2.18891 -2.88954,-3.53064 -4.81743,-3.53064 -1.69434,0 -3.57643,0.91128 -3.57643,3.4299 0,0.46251 0.11448,2.98113 1.9462,4.99144 1.10361,1.23183 2.77506,1.96452 4.29539,1.96452 1.85462,0 2.93075,-1.34173 2.93075,-3.12766 0,-0.4442 -0.0412,-0.55868 -0.0412,-0.65026 0,-0.21065 0.20607,-0.21065 0.28392,-0.21065 0.26102,0 0.26102,0.0504 0.33887,0.3526 z"
           id="path1179" /><path
           style="fill:#000000;stroke-width:0"
           inkscape:connector-curvature="0"
           d="m 527.84584,359.27306 h 0.0641 0.0687 l 0.0641,0.005 h 0.0321 0.0366 l 0.0321,0.005 0.0321,0.005 0.032,0.005 0.0321,0.005 0.0321,0.005 0.0275,0.009 0.0321,0.009 0.0275,0.009 0.0275,0.0137 0.0275,0.009 0.0275,0.0137 0.0229,0.0183 0.0229,0.0183 0.0229,0.0183 0.0183,0.0183 0.0183,0.0229 0.009,0.0137 0.009,0.0137 0.005,0.0137 0.009,0.0137 0.005,0.0137 0.005,0.0137 0.009,0.0137 0.005,0.0183 0.005,0.0137 0.005,0.0183 v 0.0183 l 0.005,0.0183 v 0.0183 l 0.005,0.0183 v 0.0229 0.0183 c 0,0.45793 -0.43503,0.45793 -0.75101,0.45793 h -13.66464 c -0.32513,0 -0.75559,0 -0.75559,-0.45793 0,-0.44878 0.43046,-0.44878 0.7739,-0.44878 z"
           id="path1181" /><path
           style="fill:#000000;stroke-width:0"
           inkscape:connector-curvature="0"
           d="m 527.86873,354.84488 h 0.0321 0.0275 0.0641 0.0641 l 0.032,0.005 h 0.0321 l 0.0321,0.005 0.0275,0.005 0.0321,0.005 0.0321,0.005 0.0321,0.005 0.0275,0.009 0.0321,0.009 0.0275,0.009 0.0275,0.0137 0.0229,0.009 0.0275,0.0183 0.0229,0.0137 0.0229,0.0183 0.0229,0.0183 0.0183,0.0229 0.009,0.009 0.009,0.0137 0.009,0.0137 0.009,0.009 0.005,0.0137 0.009,0.0137 0.005,0.0137 0.005,0.0183 0.009,0.0137 0.005,0.0183 0.005,0.0137 0.005,0.0183 v 0.0183 l 0.005,0.0183 v 0.0183 l 0.005,0.0229 v 0.0183 0.0229 c 0,0.45793 -0.43503,0.45793 -0.7739,0.45793 H 514.2224 c -0.34344,0 -0.7739,0 -0.7739,-0.45793 0,-0.45793 0.43046,-0.45793 0.75559,-0.45793 z"
           id="path1183" /><path
           style="fill:#000000;stroke-width:0"
           inkscape:connector-curvature="0"
           d="m 548.66336,360.72928 h 0.0321 0.0321 0.0275 0.0321 0.0275 0.0275 0.0275 l 0.0275,0.005 h 0.0275 0.0229 0.0229 0.0229 l 0.0458,0.005 h 0.0412 l 0.0366,0.005 0.0366,0.005 0.032,0.005 0.0321,0.009 0.0275,0.005 0.0275,0.009 0.0229,0.009 0.0275,0.009 0.0183,0.0137 0.0229,0.0137 0.0183,0.0137 0.0229,0.0183 0.0183,0.0183 0.0137,0.0183 0.0183,0.0183 0.0183,0.0229 0.0183,0.0275 0.0137,0.0275 0.0183,0.0275 0.0183,0.0321 0.0183,0.0321 0.0183,0.0321 0.0183,0.0412 0.0229,0.0366 12.4786,26.05167 c 0.1557,0.30224 0.1557,0.34345 0.1557,0.41672 0,0.25186 -0.17859,0.45793 -0.44877,0.45793 -0.30223,0 -0.39382,-0.20607 -0.5083,-0.45793 l -11.76882,-24.54966 -4.85864,11.31089 -3.17346,-2.44077 0.34345,-0.36177 1.62107,1.23184 z"
           id="path1185" /><polyline
           transform="matrix(0.45793058,0,0,0.45793058,250.43607,180.19473)"
           style="fill:#000000;fill-rule:nonzero;stroke-width:0"
           points="680,452 699.44,452 699.44,454.04 680,454.04 "
           id="polyline1187" /><path
           style="fill:#000000;stroke-width:0"
           inkscape:connector-curvature="0"
           d="m 562.2952,369.45286 2.41787,2.34461 c 3.55813,3.15056 4.93192,4.37781 4.93192,6.66289 0,2.60104 -2.05611,4.42818 -4.83575,4.42818 -2.58273,0 -4.27249,-2.1019 -4.27249,-4.13511 0,-1.27305 1.14482,-1.27305 1.20893,-1.27305 0.39383,0 1.18605,0.27018 1.18605,1.20894 0,0.59073 -0.40756,1.18604 -1.20894,1.18604 -0.17859,0 -0.22897,0 -0.29308,-0.0229 0.52204,1.4837 1.75388,2.32629 3.0773,2.32629 2.07442,0 3.06355,-1.85004 3.06355,-3.71839 0,-1.82715 -1.14482,-3.62681 -2.39955,-5.0464 l -4.37782,-4.87696 c -0.25644,-0.25186 -0.25644,-0.29766 -0.25644,-0.84717 h 8.46256 l 0.64568,3.97026 h -0.57242 c -0.11448,-0.6869 -0.27017,-1.68519 -0.49914,-2.02864 -0.16486,-0.17859 -1.67145,-0.17859 -2.17059,-0.17859 z"
           id="path1191" /><path
           style="fill:#000000;stroke-width:0"
           inkscape:connector-curvature="0"
           d="m 579.91201,373.39106 v 0.0641 l -0.005,0.0595 -0.009,0.0641 -0.009,0.0595 -0.0137,0.055 -0.0183,0.0595 -0.0183,0.0549 -0.0229,0.055 -0.0229,0.055 -0.0275,0.0504 -0.0275,0.0504 -0.0321,0.0504 -0.0366,0.0458 -0.0366,0.0458 -0.0366,0.0458 -0.0412,0.0412 -0.0412,0.0412 -0.0412,0.0366 -0.0458,0.0366 -0.0504,0.0321 -0.0458,0.0321 -0.0504,0.032 -0.055,0.0229 -0.0549,0.0275 -0.0549,0.0183 -0.055,0.0229 -0.055,0.0137 -0.0595,0.0137 -0.0595,0.009 -0.0595,0.009 -0.0641,0.005 -0.0595,0.005 c -0.65942,0 -1.20894,-0.54494 -1.20894,-1.21352 0,-0.65484 0.54952,-1.20893 1.20894,-1.20893 0.664,0 1.20894,0.55409 1.20894,1.20893 z"
           id="path1195" /><path
           style="fill:#000000;stroke-width:0"
           inkscape:connector-curvature="0"
           d="m 588.97445,369.03614 -0.009,-0.032 -0.009,-0.0366 -0.005,-0.032 -0.009,-0.0366 -0.0183,-0.0733 -0.0137,-0.0733 -0.0183,-0.0733 -0.0183,-0.0733 -0.0137,-0.0733 -0.0183,-0.0733 -0.009,-0.0366 -0.009,-0.0321 -0.005,-0.0321 -0.009,-0.0321 -0.005,-0.032 -0.009,-0.0321 -0.005,-0.0275 -0.005,-0.0275 -0.005,-0.0229 -0.005,-0.0275 -0.005,-0.0183 -0.005,-0.0229 v -0.0183 l -0.005,-0.0137 v -0.0183 -0.009 c 0,-0.40756 0.32514,-0.6182 0.65942,-0.6182 0.27934,0 0.6869,0.18317 0.8426,0.6411 0.0504,0.0916 0.82427,3.19635 0.91586,3.60391 0.17859,0.75101 0.59531,2.34919 0.73269,2.96739 0.0916,0.29766 0.72811,1.36922 1.27304,1.86836 0.18318,0.16028 0.8426,0.75101 1.83173,0.75101 0.58615,0 0.9296,-0.27018 0.95249,-0.27018 -0.68231,-0.11449 -1.18146,-0.664 -1.18146,-1.25015 0,-0.36635 0.25186,-0.80138 0.86549,-0.80138 0.61363,0 1.25015,0.52204 1.25015,1.34173 0,0.80138 -0.72811,1.4837 -1.88667,1.4837 -1.48828,0 -2.49115,-1.11735 -2.92618,-1.75387 -0.17859,1.02118 -1.00287,1.75387 -2.07443,1.75387 -1.04408,0 -1.48369,-0.88839 -1.68976,-1.29594 -0.40756,-0.77849 -0.70979,-2.1477 -0.70979,-2.21639 0,-0.22896 0.22896,-0.22896 0.27934,-0.22896 0.22896,0 0.25186,0.0275 0.38924,0.52662 0.38466,1.61649 0.84259,2.71095 1.66229,2.71095 0.38924,0 0.70979,-0.1786 0.70979,-1.04409 0,-0.47624 -0.0687,-0.73726 -0.36635,-1.91873 z"
           id="path1197" /><polyline
           transform="matrix(0.45793058,0,0,0.45793058,250.43607,180.19473)"
           style="fill:#000000;fill-rule:nonzero;stroke-width:0"
           points="630,386 803.4,386 803.4,388.04 630,388.04 "
           id="polyline1199" /><path
           style="fill:#000000;stroke-width:0"
           inkscape:connector-curvature="0"
           d="m 562.16316,337.96097 2.41787,2.34919 c 3.55354,3.14598 4.92733,4.37782 4.92733,6.66289 0,2.60104 -2.05153,4.42819 -4.83575,4.42819 -2.58272,0 -4.27249,-2.10648 -4.27249,-4.13512 0,-1.27762 1.14483,-1.27762 1.20894,-1.27762 0.39382,0 1.19062,0.27476 1.19062,1.21351 0,0.59073 -0.40756,1.18604 -1.20894,1.18604 -0.17859,0 -0.22896,0 -0.29307,-0.0229 0.52204,1.48369 1.74929,2.32628 3.07271,2.32628 2.07901,0 3.06356,-1.85461 3.06356,-3.71839 0,-1.82714 -1.14483,-3.63139 -2.39498,-5.0464 l -4.37782,-4.88154 c -0.26102,-0.24728 -0.26102,-0.29307 -0.26102,-0.84259 h 8.46714 l 0.6411,3.97026 h -0.57241 c -0.11448,-0.6869 -0.27018,-1.68976 -0.49915,-2.03321 -0.16485,-0.1786 -1.66686,-0.1786 -2.16601,-0.1786 z"
           id="path1201" /><path
           style="fill:#000000;stroke-width:0"
           inkscape:connector-curvature="0"
           d="m 580.07282,341.90376 v 0.0641 l -0.005,0.0595 -0.009,0.0595 -0.009,0.0595 -0.0137,0.0595 -0.0183,0.0595 -0.0183,0.055 -0.0229,0.055 -0.0229,0.055 -0.0275,0.0504 -0.0275,0.0504 -0.0321,0.0504 -0.0366,0.0458 -0.0321,0.0458 -0.0412,0.0458 -0.0412,0.0412 -0.0412,0.0412 -0.0412,0.0366 -0.0458,0.0366 -0.0504,0.0321 -0.0458,0.032 -0.0504,0.0275 -0.055,0.0275 -0.055,0.0229 -0.0549,0.0229 -0.0549,0.0183 -0.055,0.0183 -0.0595,0.0137 -0.0595,0.009 -0.0595,0.009 -0.0641,0.005 h -0.0595 c -0.65942,0 -1.20893,-0.54035 -1.20893,-1.20893 0,-0.65484 0.54951,-1.20894 1.20893,-1.20894 0.664,0 1.20894,0.5541 1.20894,1.20894 z"
           id="path1203" /><path
           style="fill:#000000;stroke-width:0"
           inkscape:connector-curvature="0"
           d="m 589.13069,337.54884 -0.005,-0.0321 -0.009,-0.0366 -0.005,-0.0321 -0.009,-0.0366 -0.0137,-0.0733 -0.0183,-0.0733 -0.0183,-0.0733 -0.0183,-0.0733 -0.0137,-0.0733 -0.0183,-0.0733 -0.009,-0.0366 -0.005,-0.032 -0.009,-0.0321 -0.009,-0.0321 -0.005,-0.0321 -0.005,-0.0321 -0.009,-0.0275 -0.005,-0.0275 -0.005,-0.0229 -0.005,-0.0275 -0.005,-0.0229 v -0.0183 l -0.005,-0.0183 v -0.0183 l -0.005,-0.0137 v -0.009 c 0,-0.40756 0.32513,-0.61821 0.65942,-0.61821 0.27934,0 0.68689,0.17859 0.84259,0.63652 0.0504,0.0962 0.82428,3.20094 0.91586,3.6085 0.17859,0.751 0.59531,2.3446 0.73269,2.96739 0.0916,0.29307 0.72811,1.36921 1.27305,1.86835 0.18317,0.1557 0.84259,0.75101 1.83172,0.75101 0.58615,0 0.9296,-0.27018 0.9525,-0.27018 -0.68232,-0.11448 -1.18147,-0.66858 -1.18147,-1.25473 0,-0.36176 0.25187,-0.80138 0.86549,-0.80138 0.61363,0 1.25015,0.52204 1.25015,1.34632 0,0.80138 -0.72811,1.48369 -1.88667,1.48369 -1.48827,0 -2.49114,-1.11735 -2.92618,-1.75387 -0.17859,1.02118 -1.00286,1.75387 -2.07442,1.75387 -1.04866,0 -1.4837,-0.88838 -1.68977,-1.29594 -0.40755,-0.78306 -0.70979,-2.1477 -0.70979,-2.22096 0,-0.22897 0.22897,-0.22897 0.27934,-0.22897 0.22896,0 0.25186,0.0321 0.38466,0.5312 0.38924,1.6165 0.84717,2.71095 1.67145,2.71095 0.38466,0 0.70521,-0.17859 0.70521,-1.04408 0,-0.48083 -0.0687,-0.73727 -0.36176,-1.91873 z"
           id="path1205" /><path
           style="fill:#000000;stroke-width:0"
           inkscape:connector-curvature="0"
           d="m 643.87629,362.12139 v 0.0412 l -0.005,0.0458 v 0.0412 l -0.005,0.0366 -0.005,0.0366 -0.005,0.0366 -0.005,0.0366 -0.005,0.0321 -0.009,0.0321 -0.005,0.0321 -0.009,0.0275 -0.009,0.0275 -0.009,0.0275 -0.009,0.0229 -0.009,0.0229 -0.0137,0.0229 -0.009,0.0183 -0.0137,0.0229 -0.009,0.0137 -0.0137,0.0183 -0.0137,0.0137 -0.0137,0.0137 -0.0137,0.0137 -0.0137,0.009 -0.0137,0.009 -0.0137,0.009 -0.0137,0.005 -0.0137,0.009 h -0.0137 l -0.0183,0.005 -0.0137,0.005 h -0.0137 c -0.0916,0 -0.30224,-0.0962 -0.32056,-0.61821 -0.0962,-1.5707 -1.68976,-2.50946 -3.17345,-2.50946 -1.31884,0 -2.46367,0.70979 -3.65429,1.51117 -1.23183,0.81512 -2.45909,1.63482 -3.94278,1.63482 -2.1248,0 -3.81456,-1.6165 -3.81456,-3.7184 0,-0.49915 0.18775,-0.68232 0.32513,-0.68232 0.22896,0 0.32055,0.43046 0.32055,0.52662 0.11448,1.91415 1.98284,2.60105 3.16888,2.60105 1.32342,0 2.46366,-0.70521 3.6497,-1.50659 1.23184,-0.82428 2.45909,-1.64855 3.94737,-1.64855 2.12021,0 3.80998,1.62565 3.80998,3.72297 z"
           id="path1207" /><path
           style="fill:#000000;stroke-width:0"
           inkscape:connector-curvature="0"
           d="m 643.87629,356.78192 v 0.0321 0.0275 l -0.005,0.0321 v 0.0275 0.0275 l -0.005,0.0229 v 0.0275 l -0.005,0.0229 v 0.0275 l -0.005,0.0229 -0.005,0.0229 -0.005,0.0183 -0.005,0.0229 -0.005,0.0183 -0.005,0.0183 -0.005,0.0229 -0.005,0.0137 -0.005,0.0183 -0.005,0.0183 -0.005,0.0137 -0.009,0.0183 -0.005,0.0137 -0.005,0.0137 -0.005,0.0137 -0.009,0.0137 -0.005,0.009 -0.0137,0.0229 -0.0137,0.0229 -0.0137,0.0183 -0.0137,0.0183 -0.0137,0.0137 -0.0137,0.0137 -0.0137,0.009 -0.0137,0.009 -0.0137,0.009 -0.0137,0.009 -0.009,0.005 -0.0137,0.005 -0.009,0.005 -0.009,0.005 h -0.009 -0.009 l -0.009,0.005 h -0.005 -0.005 c -0.0916,0 -0.30224,-0.11448 -0.32056,-0.6182 -0.0962,-1.5707 -1.68976,-2.50946 -3.17345,-2.50946 -1.31884,0 -2.46367,0.70979 -3.65429,1.51117 -1.23183,0.81512 -2.45909,1.63481 -3.94278,1.63481 -2.1248,0 -3.81456,-1.61649 -3.81456,-3.7184 0,-0.49914 0.18775,-0.67773 0.32513,-0.67773 0.22896,0 0.32055,0.42587 0.32055,0.52204 0.11448,1.91415 1.98284,2.60104 3.16888,2.60104 1.32342,0 2.46366,-0.70521 3.6497,-1.50659 1.23184,-0.82427 2.45909,-1.63939 3.94737,-1.63939 2.17059,0 3.80998,1.68977 3.80998,3.69092 z"
           id="path1209" /><path
           style="fill:#000000;stroke-width:0"
           inkscape:connector-curvature="0"
           d="m 661.96912,359.10821 v 0.34345 l -0.005,0.33887 -0.009,0.34344 -0.0183,0.34345 -0.0183,0.33887 -0.0275,0.33887 -0.0366,0.33887 -0.0412,0.33429 -0.055,0.33887 -0.0641,0.32971 -0.0733,0.33428 -0.087,0.32971 -0.10074,0.32514 -0.10991,0.32055 -0.12822,0.32055 -0.0687,0.16027 -0.0733,0.16028 c -1.04408,2.19349 -2.92159,2.55983 -3.87867,2.55983 -1.36463,0 -3.0315,-0.59531 -3.97026,-2.72011 -0.72811,-1.57528 -0.84259,-3.35663 -0.84259,-5.17919 0,-1.71266 0.0916,-3.76419 1.03034,-5.49517 0.97998,-1.84546 2.64684,-2.30339 3.75962,-2.30339 v 0.49915 c -0.88381,0 -2.23929,0.57241 -2.64684,2.76132 -0.24729,1.36921 -0.24729,3.46653 -0.24729,4.81743 0,1.4608 0,2.96281 0.18318,4.19006 0.43045,2.72011 2.13853,2.9216 2.71095,2.9216 0.751,0 2.26217,-0.40756 2.69263,-2.66974 0.22896,-1.27304 0.22896,-3.01318 0.22896,-4.44192 0,-1.71724 0,-3.26505 -0.25186,-4.72127 -0.34345,-2.17059 -1.64397,-2.85748 -2.66973,-2.85748 v 0 -0.49915 c 1.23183,0 2.96281,0.47625 3.97483,2.64684 0.72811,1.57528 0.84259,3.34747 0.84259,5.15172 z"
           id="path1211" /><path
           style="fill:#000000;stroke-width:0"
           inkscape:connector-curvature="0"
           d="m 667.28112,353.01773 -0.005,0.0641 -0.005,0.0595 -0.005,0.0595 -0.0137,0.0595 -0.0137,0.0595 -0.0137,0.0549 -0.0183,0.055 -0.0229,0.055 -0.0229,0.0549 -0.0275,0.0504 -0.0321,0.0504 -0.0321,0.0504 -0.0321,0.0458 -0.0366,0.0458 -0.0366,0.0458 -0.0412,0.0412 -0.0412,0.0412 -0.0458,0.0366 -0.0458,0.0366 -0.0458,0.0366 -0.0504,0.0321 -0.0504,0.0275 -0.0504,0.0275 -0.0549,0.0229 -0.0549,0.0229 -0.055,0.0183 -0.0549,0.0183 -0.0595,0.0137 -0.0595,0.009 -0.0595,0.009 -0.0641,0.005 h -0.0595 c -0.65942,0 -1.20893,-0.54952 -1.20893,-1.20894 0,-0.65942 0.54951,-1.20893 1.20893,-1.20893 0.664,0 1.20894,0.54951 1.20894,1.20893 z"
           id="path1213" /><path
           style="fill:#000000;stroke-width:0"
           inkscape:connector-curvature="0"
           d="m 680.08028,365.70699 0.0183,0.0229 0.0183,0.0229 0.0137,0.0229 0.0137,0.0229 0.0137,0.0183 0.0137,0.0229 0.0137,0.0183 0.009,0.0183 0.0137,0.0183 0.009,0.0183 0.005,0.0183 0.009,0.0183 0.009,0.0183 0.005,0.0183 0.005,0.0183 0.005,0.0183 0.005,0.0229 0.005,0.0183 0.005,0.0229 v 0.0229 l 0.005,0.0229 v 0.0229 l 0.005,0.0275 v 0.0275 0.0275 l 0.005,0.0321 v 0.0321 0.0366 0.0366 0.0366 0.0412 0.0229 0.0229 h -5.54096 c -2.77964,0 -2.83001,0.30223 -2.92618,0.72811 h -0.56325 l -0.75101,-4.69379 h 0.56326 c 0.0733,0.36634 0.27933,1.80425 0.57241,2.07443 0.16027,0.13737 1.94162,0.13737 2.2347,0.13737 h 4.73042 c -0.26102,-0.36634 -2.05611,-2.8529 -2.56441,-3.60391 -2.05153,-3.07729 -2.80253,-6.25533 -2.80253,-8.58162 0,-0.22896 0,-1.25015 1.04866,-1.25015 1.05324,0 1.05324,1.02119 1.05324,1.25015 v 1.16772 c 0,1.25016 0.0641,2.50946 0.25186,3.7413 0.0824,0.52204 0.40756,2.48198 1.41043,3.90157 z"
           id="path1215" /><g
           id="g2771"
           transform="translate(-30.650018,-3.6488116)"><g
             id="g2944"
             transform="matrix(0.3,0,0,-0.3,-66.365484,198.30296)"
             xml:space="preserve"
             stroke-miterlimit="10.433"
             font-style="normal"
             font-variant="normal"
             font-weight="normal"
             font-stretch="normal"
             font-size-adjust="none"
             letter-spacing="normal"
             word-spacing="normal"
             style="font-style:normal;font-variant:normal;font-weight:normal;font-stretch:normal;letter-spacing:normal;word-spacing:normal;text-anchor:start;fill:none;fill-opacity:1;fill-rule:evenodd;stroke:#000000;stroke-linecap:butt;stroke-linejoin:miter;stroke-miterlimit:10.43299961;stroke-dasharray:none;stroke-dashoffset:0;stroke-opacity:1"><g
               id="g2942"><g
                 word-spacing="normal"
                 letter-spacing="normal"
                 font-size-adjust="none"
                 font-stretch="normal"
                 font-weight="normal"
                 font-variant="normal"
                 font-style="normal"
                 stroke-miterlimit="10.433"
                 xml:space="preserve"
                 transform="matrix(0.3,0,0,-0.3,-52.5,222.75)"
                 id="content"
                 style="font-style:normal;font-variant:normal;font-weight:normal;font-stretch:normal;letter-spacing:normal;word-spacing:normal;text-anchor:start;fill:none;fill-opacity:1;fill-rule:evenodd;stroke:#000000;stroke-linecap:butt;stroke-linejoin:miter;stroke-miterlimit:10.43299961;stroke-dasharray:none;stroke-dashoffset:0;stroke-opacity:1"><path
                   id="path2935"
                   d="m 4165.1013,2688.4887 v 0 0.05 0 0.051 0.1005 0.05 0.1005 0.1004 l -0.05,0.1005 v 0.1004 l -0.051,0.1005 v 0.1004 l -0.051,0.1004 -0.05,0.1492 -0.051,0.1004 -0.051,0.1492 -0.1005,0.1004 -0.051,0.1506 -0.1005,0.1005 -0.1004,0.1004 -0.1005,0.1507 -0.1004,0.05 -0.051,0.05 -0.051,0.051 -0.1005,0.05 -0.051,0.05 -0.1004,0.051 -0.05,0.05 -0.1005,0.051 -0.05,0.05 -0.1004,0.05 h -0.1005 l -0.1004,0.051 -0.1004,0.05 h -0.1005 l -0.1004,0.05 -0.1492,0.051 h -0.1004 -0.1005 l -0.1491,0.05 h -0.1491 -0.1004 l -0.1492,0.051 h -0.149 -0.1491 c -3.7467,0 -27.3751,-2.298 -31.6214,-2.7474 -1.9981,-0.2498 -3.4967,-1.4987 -3.4967,-4.7457 0,-2.9973 2.2479,-2.9973 5.9945,-2.9973 11.9391,0 12.4388,-1.6984 12.4388,-4.1962 l -0.6994,-4.9956 -14.9865,-58.9962 c -4.4458,9.1917 -11.7393,15.8856 -22.8791,15.8856 l 0.2497,-5.4452 c 16.1354,0 19.6322,-20.3814 19.6322,-21.83 0,-1.5986 -0.4496,-3.0473 -0.6993,-4.2962 l -12.4887,-48.8056 c -1.2489,-4.4459 -1.2489,-4.8955 -4.9955,-9.1916 -10.8901,-13.6875 -21.1307,-17.6339 -28.0745,-17.6339 -12.4386,0 -15.9355,13.6375 -15.9355,23.3787 0,12.4386 7.9428,43.0108 13.6877,54.5004 7.6929,14.6867 18.9327,23.8782 28.8736,23.8782 l -0.2497,5.4452 c -29.1236,0 -59.9455,-36.5168 -59.9455,-72.8838 0,-23.4286 13.6375,-39.8138 33.07,-39.8138 4.9455,0 17.4341,1.0491 32.3205,18.6831 2.0481,-10.4905 10.6903,-18.6831 22.6295,-18.6831 8.742,0 14.4868,5.6948 18.4333,13.6876 4.246,8.9418 7.4931,24.1779 7.4931,24.6276 0,2.4978 -2.2479,2.4978 -2.9473,2.4978 -2.4978,0 -2.7474,-0.9992 -3.4969,-4.496 -4.2461,-16.1852 -8.742,-30.8219 -18.9328,-30.8219 -6.6939,0 -7.4931,6.444 -7.4931,11.4395 0,5.9446 0.4995,7.743 1.4986,11.9392 z"
                   inkscape:connector-curvature="0"
                   style="fill:#1120e2;fill-opacity:1;stroke:none;stroke-width:0;stroke-opacity:1" /><path
                   id="path2937"
                   d="m 4202.0176,2502.258 -0.5495,-0.8991 -0.5494,-0.7992 -0.5995,-0.8493 -0.5495,-0.7494 -0.5494,-0.7994 -0.5995,-0.6993 -0.5494,-0.6992 -0.5996,-0.6994 -0.5495,-0.6495 -0.5994,-0.5994 -0.5994,-0.5994 -0.5996,-0.5496 -0.5994,-0.5496 -0.5994,-0.5494 -0.6495,-0.4496 -0.6493,-0.4995 -0.6495,-0.3997 -0.6494,-0.4495 -0.6494,-0.3497 -0.6994,-0.3997 -0.6993,-0.2997 -0.7493,-0.3496 -0.7493,-0.2499 -0.7493,-0.2997 -0.7994,-0.1998 -0.7992,-0.2498 -0.8492,-0.1998 -0.8493,-0.1491 -0.8492,-0.1491 -0.8992,-0.1004 -0.949,-0.1005 -0.9493,-0.1005 c -1.6984,-0.1506 -3.9463,-0.1506 -3.9463,-3.6466 0,-1.8984 1.5485,-2.5978 2.3977,-2.5978 4.5459,0 10.2908,0.6994 14.9863,0.6994 5.5451,0 12.7385,-0.6994 17.9337,-0.6994 0.8992,0 3.447,0 3.447,3.8467 0,2.2478 -2.248,2.3977 -2.8973,2.3977 -1.3988,0.2498 -7.6931,0.5495 -7.6931,5.2453 0,2.0979 1.7984,5.0454 2.6477,6.6438 l 13.8873,21.5305 h 49.8046 l -0.8491,6.2943 h -44.7594 l 36.5667,56.9481 8.1927,-56.9481 0.8491,-6.2943 4.1962,-28.8737 c -0.6992,-1.7485 -1.7984,-4.5459 -11.9891,-4.5459 -2.1481,0 -4.5458,0 -4.5458,-3.7965 0,-0.6994 0.4497,-2.4479 2.7475,-2.4479 5.0454,0 17.3842,0.6994 22.4795,0.6994 3.0973,0 7.0937,-0.1491 10.2907,-0.1491 3.0971,-0.2497 6.7939,-0.5495 9.891,-0.5495 2.2978,0 3.4469,1.3988 3.4469,3.6967 0,2.5477 -2.0481,2.5477 -4.8456,2.5477 -10.0408,0 -10.4406,1.3987 -10.9901,5.6449 l -15.286,107.4023 c -0.5495,3.5968 -0.8992,4.8457 -4.1463,4.8457 -3.3469,0 -4.396,-1.5987 -5.9446,-3.9964 z"
                   inkscape:connector-curvature="0"
                   style="fill:#1120e2;fill-opacity:1;stroke:none;stroke-width:0;stroke-opacity:1" /><path
                   id="path2939"
                   d="m 4462.8305,2601.4679 v 0.1004 l -0.051,0.05 v 0.1004 0.1005 0.1004 l -0.051,0.051 v 0.1004 l -0.05,0.1005 v 0.1005 l -0.051,0.1004 -0.051,0.1005 -0.05,0.1004 -0.051,0.1005 -0.051,0.05 -0.051,0.1005 -0.05,0.1004 -0.1004,0.1005 -0.051,0.05 -0.1005,0.1005 -0.051,0.05 -0.1005,0.1004 -0.1004,0.05 -0.1004,0.05 -0.1005,0.1005 -0.1004,0.051 h -0.1492 l -0.1004,0.05 -0.1491,0.051 h -0.051 -0.1005 l -0.051,0.05 h -0.1005 -0.05 -0.1004 -0.051 -0.1005 c -1.2487,0 -1.5484,-0.3996 -3.0972,-2.0982 l -12.7383,-13.4377 c -1.5487,2.0981 -11.2897,15.5359 -32.6702,15.5359 -42.3116,0 -83.774,-37.466 -83.774,-76.7802 0,-28.3741 22.3297,-49.1054 53.4514,-49.1054 9.3915,0 26.0763,1.9483 44.0599,17.0845 13.7375,11.6395 17.5341,26.7757 17.5341,28.1744 0,2.2479 -2.098,2.2479 -2.9473,2.2479 -2.2979,0 -2.5976,-0.8491 -3.147,-2.6975 -7.0937,-23.8782 -31.5214,-38.5149 -52.5023,-38.5149 -18.5331,0 -39.0646,9.941 -39.0646,37.4159 0,5.0454 1.2489,32.5205 21.2307,54.4505 12.0391,13.4378 30.3225,21.4305 46.8574,21.4305 20.1817,0 32.021,-14.6367 32.021,-34.119 0,-4.8456 -0.4996,-6.0944 -0.4996,-7.0934 0,-2.298 2.2479,-2.298 3.1471,-2.298 2.7975,0 2.7975,0.5495 3.6468,3.8465 z"
                   inkscape:connector-curvature="0"
                   style="fill:#1120e2;fill-opacity:1;stroke:none;stroke-width:0;stroke-opacity:1" /></g></g></g></g></g>    </g>
    <g
       id="g1388"
       transform="matrix(0.78396782,0,0,0.78396782,108.84689,73.176442)"
       style="fill:#000000;fill-opacity:1">
      <g
         word-spacing="normal"
         letter-spacing="normal"
         font-size-adjust="none"
         font-stretch="normal"
         font-weight="normal"
         font-variant="normal"
         font-style="normal"
         stroke-miterlimit="10.433"
         xml:space="preserve"
         transform="matrix(0.3,0,0,-0.3,-52.5,222.75)"
         id="g1386"
         style="font-style:normal;font-variant:normal;font-weight:normal;font-stretch:normal;letter-spacing:normal;word-spacing:normal;text-anchor:start;fill:#000000;fill-opacity:1;fill-rule:evenodd;stroke:#000000;stroke-linecap:butt;stroke-linejoin:miter;stroke-miterlimit:10.43299961;stroke-dasharray:none;stroke-dashoffset:0;stroke-opacity:1"><path
           id="path1336"
           d="m 487.22,443.11 v 0 0 0.01 0.01 0.02 0.01 0.02 0.01 l -0.01,0.02 v 0.02 l -0.01,0.03 v 0.02 l -0.01,0.02 -0.01,0.03 -0.01,0.02 -0.01,0.03 -0.02,0.02 -0.01,0.02 -0.02,0.03 -0.02,0.02 -0.02,0.03 -0.02,0.01 -0.01,0.01 -0.01,0.01 -0.02,0.01 -0.01,0.01 -0.02,0.01 -0.01,0.01 -0.02,0.01 -0.01,0.01 h -0.02 l -0.02,0.01 -0.02,0.01 -0.02,0.01 h -0.02 l -0.02,0.01 h -0.03 l -0.02,0.01 h -0.02 l -0.03,0.01 h -0.03 -0.02 -0.03 l -0.03,0.01 h -0.03 c -0.75,0 -5.48,-0.46 -6.33,-0.55 -0.4,-0.05 -0.7,-0.3 -0.7,-0.95 0,-0.6 0.45,-0.6 1.2,-0.6 2.39,0 2.49,-0.34 2.49,-0.84 l -0.14,-1 -3,-11.81 c -0.89,1.84 -2.35,3.18 -4.58,3.18 l 0.05,-1.09 c 3.23,0 3.93,-4.08 3.93,-4.38 0,-0.31 -0.09,-0.6 -0.14,-0.85 l -2.5,-9.77 c -0.25,-0.89 -0.25,-0.98 -1,-1.84 -2.18,-2.74 -4.23,-3.54 -5.62,-3.54 -2.49,0 -3.19,2.74 -3.19,4.69 0,2.49 1.59,8.61 2.74,10.91 1.54,2.94 3.79,4.78 5.78,4.78 l -0.05,1.09 c -5.83,0 -12,-7.31 -12,-14.59 0,-4.69 2.73,-7.97 6.62,-7.97 0.99,0 3.49,0.2 6.47,3.74 0.41,-2.1 2.14,-3.74 4.53,-3.74 1.75,0 2.9,1.14 3.69,2.74 0.85,1.79 1.5,4.84 1.5,4.93 0,0.5 -0.45,0.5 -0.59,0.5 -0.5,0 -0.55,-0.2 -0.7,-0.9 -0.85,-3.24 -1.75,-6.18 -3.79,-6.18 -1.34,0 -1.5,1.3 -1.5,2.3 0,1.19 0.1,1.55 0.3,2.39 z"
           inkscape:connector-curvature="0"
           style="fill:#e2b611;fill-opacity:1;stroke-width:0" /><path
           id="path1338"
           d="m 496.41,453.78 v 0 0 l 0.01,0.01 v 0.01 l 0.01,0.01 0.01,0.01 v 0.02 l 0.01,0.02 0.01,0.01 0.01,0.03 0.01,0.02 0.01,0.02 0.01,0.03 0.01,0.03 0.01,0.03 0.02,0.02 0.01,0.04 0.01,0.03 0.01,0.03 0.01,0.03 0.01,0.04 0.01,0.03 0.01,0.04 0.01,0.04 0.01,0.03 v 0.04 l 0.01,0.03 0.01,0.04 v 0.04 0.03 l 0.01,0.04 v 0.04 0.03 c 0,0.91 -0.8,1.47 -1.55,1.47 -1.01,0 -1.29,-0.76 -1.42,-1.14 l -3.83,-10.78 c -0.11,-0.31 -0.11,-0.38 -0.11,-0.41 0,-0.39 1.05,-0.64 1.08,-0.64 0.22,0 0.27,0.13 0.42,0.42 z"
           inkscape:connector-curvature="0"
           style="fill:#e2b611;fill-opacity:1;stroke-width:0" /><path
           id="path1340"
           d="m 494.61,399.47 -0.11,-0.18 -0.11,-0.16 -0.12,-0.17 -0.11,-0.15 -0.11,-0.16 -0.12,-0.14 -0.11,-0.14 -0.12,-0.14 -0.11,-0.13 -0.12,-0.12 -0.12,-0.12 -0.12,-0.11 -0.12,-0.11 -0.12,-0.11 -0.13,-0.09 -0.13,-0.1 -0.13,-0.08 -0.13,-0.09 -0.13,-0.07 -0.14,-0.08 -0.14,-0.06 -0.15,-0.07 -0.15,-0.05 -0.15,-0.06 -0.16,-0.04 -0.16,-0.05 -0.17,-0.04 -0.17,-0.03 -0.17,-0.03 -0.18,-0.02 -0.19,-0.02 -0.19,-0.02 c -0.34,-0.03 -0.79,-0.03 -0.79,-0.73 0,-0.38 0.31,-0.52 0.48,-0.52 0.91,0 2.06,0.14 3,0.14 1.11,0 2.55,-0.14 3.59,-0.14 0.18,0 0.69,0 0.69,0.77 0,0.45 -0.45,0.48 -0.58,0.48 -0.28,0.05 -1.54,0.11 -1.54,1.05 0,0.42 0.36,1.01 0.53,1.33 l 2.78,4.31 h 9.97 l -0.17,1.26 h -8.96 l 7.32,11.4 1.64,-11.4 0.17,-1.26 0.84,-5.78 c -0.14,-0.35 -0.36,-0.91 -2.4,-0.91 -0.43,0 -0.91,0 -0.91,-0.76 0,-0.15 0.09,-0.49 0.55,-0.49 1.01,0 3.48,0.14 4.5,0.14 0.62,0 1.42,-0.03 2.06,-0.03 0.62,-0.05 1.36,-0.11 1.98,-0.11 0.46,0 0.69,0.28 0.69,0.74 0,0.51 -0.41,0.51 -0.97,0.51 -2.01,0 -2.09,0.28 -2.2,1.13 l -3.06,21.5 c -0.11,0.72 -0.18,0.96 -0.83,0.96 -0.67,0 -0.88,-0.31 -1.19,-0.79 z"
           inkscape:connector-curvature="0"
           style="fill:#e2b611;fill-opacity:1;stroke-width:0" /><path
           id="path1342"
           d="m 524.07,398 -0.03,-0.11 -0.03,-0.1 -0.03,-0.1 -0.03,-0.09 -0.02,-0.09 -0.03,-0.09 -0.03,-0.08 -0.04,-0.07 -0.03,-0.07 -0.04,-0.07 -0.05,-0.06 -0.05,-0.06 -0.05,-0.05 -0.06,-0.05 -0.06,-0.05 -0.07,-0.04 -0.08,-0.04 -0.08,-0.03 -0.1,-0.04 -0.1,-0.03 -0.11,-0.02 -0.06,-0.02 -0.06,-0.01 -0.06,-0.01 -0.07,-0.01 -0.07,-0.01 -0.07,-0.01 h -0.08 l -0.07,-0.01 -0.08,-0.01 -0.09,-0.01 h -0.08 l -0.09,-0.01 h -0.09 -0.1 l -0.1,-0.01 h -0.1 -0.11 l -0.11,-0.01 h -0.11 -0.12 -0.12 -0.12 c -0.58,0 -1.03,0 -1.03,-0.73 0,-0.52 0.4,-0.52 1.03,-0.52 h 13.48 c 5.86,0 10.36,4 10.36,7.45 0,2.49 -2.26,4.61 -5.97,4.99 4.22,0.76 7.75,3.42 7.75,6.4 0,2.66 -2.68,4.96 -7.21,4.96 l -0.57,-1.25 c 3.57,0 4.36,-2.35 4.36,-3.66 0,-2.83 -3.17,-6.03 -7.84,-6.03 h -5.7 l -0.25,-0.98 h 7.38 c 3.27,0 4.54,-2.16 4.54,-4.18 0,-3.45 -3.54,-6.45 -7.74,-6.45 h -5.62 c -1.08,0 -1.11,0.05 -1.11,0.36 0,0.03 0,0.2 0.14,0.72 l 2.41,9.55 0.25,0.98 2.12,8.5 c 0.26,1.08 0.31,1.19 1.76,1.19 h 5.3 l 0.57,1.25 h -12.69 c -0.66,0 -1.11,0 -1.11,-0.77 0,-0.48 0.42,-0.48 1.11,-0.48 0.03,0 0.7,0 1.32,-0.08 0.74,-0.06 0.8,-0.14 0.8,-0.48 0,-0.07 0,-0.24 -0.14,-0.77 z"
           inkscape:connector-curvature="0"
           style="fill:#e2b611;fill-opacity:1;stroke-width:0" /><polyline
           id="polyline1344"
           points="462,387 552.24,387 552.24,389.04 462,389.04 "
           style="fill:#000000;fill-opacity:1;fill-rule:nonzero;stroke-width:0" /><path
           id="path1346"
           d="m 487.58,373.87 v 0 0.01 0 0.02 0.01 0.01 0.02 0.02 l -0.01,0.02 V 374 l -0.01,0.02 v 0.02 l -0.01,0.02 -0.01,0.03 -0.01,0.02 -0.01,0.03 -0.02,0.02 -0.01,0.03 -0.02,0.02 -0.02,0.02 -0.02,0.03 -0.02,0.01 -0.01,0.01 -0.01,0.01 -0.02,0.01 -0.01,0.01 -0.02,0.01 -0.01,0.01 -0.02,0.01 -0.02,0.01 -0.01,0.01 h -0.02 l -0.02,0.01 -0.02,0.01 -0.02,0.01 h -0.02 l -0.03,0.01 h -0.02 l -0.03,0.01 h -0.02 -0.03 -0.02 l -0.03,0.01 h -0.03 -0.03 c -0.75,0 -5.48,-0.46 -6.33,-0.55 -0.4,-0.05 -0.7,-0.3 -0.7,-0.95 0,-0.6 0.45,-0.6 1.2,-0.6 2.39,0 2.49,-0.34 2.49,-0.84 l -0.14,-1 -3,-11.81 c -0.89,1.84 -2.35,3.19 -4.58,3.19 l 0.05,-1.1 c 3.23,0 3.93,-4.08 3.93,-4.37 0,-0.32 -0.09,-0.61 -0.14,-0.86 l -2.5,-9.77 c -0.25,-0.89 -0.25,-0.98 -1,-1.84 -2.18,-2.74 -4.23,-3.53 -5.62,-3.53 -2.49,0 -3.19,2.73 -3.19,4.68 0,2.49 1.59,8.61 2.73,10.91 1.55,2.94 3.8,4.78 5.79,4.78 l -0.05,1.1 c -5.83,0 -12,-7.32 -12,-14.6 0,-4.69 2.73,-7.97 6.62,-7.97 0.99,0 3.49,0.21 6.47,3.74 0.41,-2.1 2.14,-3.74 4.53,-3.74 1.75,0 2.89,1.14 3.69,2.74 0.85,1.79 1.5,4.84 1.5,4.93 0,0.5 -0.45,0.5 -0.59,0.5 -0.5,0 -0.55,-0.2 -0.71,-0.9 -0.84,-3.24 -1.75,-6.17 -3.78,-6.17 -1.34,0 -1.5,1.29 -1.5,2.29 0,1.19 0.1,1.55 0.3,2.39 z"
           inkscape:connector-curvature="0"
           style="fill:#e22011;fill-opacity:1;stroke-width:0" /><path
           id="path1348"
           d="m 496.77,378.54 v 0 0 l 0.01,0.01 v 0.01 l 0.01,0.01 0.01,0.01 v 0.02 l 0.01,0.02 0.01,0.02 0.01,0.02 0.01,0.02 0.01,0.02 0.01,0.03 0.01,0.03 0.01,0.03 0.02,0.03 0.01,0.03 0.01,0.03 0.01,0.03 0.01,0.04 0.01,0.03 0.01,0.04 0.01,0.03 0.01,0.04 0.01,0.03 v 0.04 l 0.01,0.04 0.01,0.03 v 0.04 0.04 l 0.01,0.03 v 0.04 0.03 c 0,0.91 -0.8,1.47 -1.55,1.47 -1.01,0 -1.29,-0.76 -1.42,-1.14 l -3.83,-10.78 c -0.11,-0.31 -0.11,-0.37 -0.11,-0.41 0,-0.39 1.05,-0.64 1.08,-0.64 0.22,0 0.27,0.13 0.42,0.43 z"
           inkscape:connector-curvature="0"
           style="fill:#e22011;fill-opacity:1;stroke-width:0" /><path
           id="path1350"
           d="m 494.97,329.39 -0.11,-0.18 -0.11,-0.17 -0.12,-0.16 -0.11,-0.16 -0.11,-0.15 -0.12,-0.14 -0.11,-0.14 -0.12,-0.14 -0.11,-0.13 -0.12,-0.12 -0.12,-0.12 -0.12,-0.12 -0.12,-0.1 -0.12,-0.11 -0.13,-0.1 -0.13,-0.09 -0.13,-0.09 -0.13,-0.08 -0.13,-0.08 -0.14,-0.07 -0.15,-0.07 -0.14,-0.06 -0.15,-0.06 -0.15,-0.05 -0.16,-0.05 -0.16,-0.04 -0.17,-0.04 -0.17,-0.03 -0.17,-0.03 -0.18,-0.03 -0.19,-0.02 -0.19,-0.01 c -0.34,-0.03 -0.79,-0.03 -0.79,-0.74 0,-0.37 0.31,-0.51 0.48,-0.51 0.91,0 2.06,0.14 3,0.14 1.11,0 2.55,-0.14 3.59,-0.14 0.18,0 0.69,0 0.69,0.76 0,0.46 -0.45,0.49 -0.58,0.49 -0.28,0.05 -1.54,0.11 -1.54,1.05 0,0.42 0.36,1.01 0.53,1.32 l 2.78,4.32 h 9.97 l -0.17,1.26 h -8.96 l 7.31,11.39 1.65,-11.39 0.17,-1.26 0.84,-5.78 c -0.14,-0.35 -0.36,-0.91 -2.41,-0.91 -0.42,0 -0.9,0 -0.9,-0.77 0,-0.14 0.09,-0.48 0.55,-0.48 1.01,0 3.48,0.14 4.5,0.14 0.62,0 1.42,-0.03 2.06,-0.03 0.62,-0.05 1.36,-0.11 1.98,-0.11 0.45,0 0.69,0.28 0.69,0.73 0,0.52 -0.41,0.52 -0.97,0.52 -2.02,0 -2.09,0.28 -2.2,1.12 l -3.06,21.5 c -0.11,0.72 -0.18,0.97 -0.83,0.97 -0.67,0 -0.88,-0.31 -1.19,-0.79 z"
           inkscape:connector-curvature="0"
           style="fill:#e22011;fill-opacity:1;stroke-width:0" /><path
           id="path1352"
           d="m 547.18,349.25 v 0.01 l -0.01,0.02 v 0.02 0.01 0.02 l -0.01,0.02 v 0.02 l -0.01,0.02 v 0.02 l -0.01,0.02 -0.01,0.02 -0.01,0.01 -0.01,0.02 -0.01,0.02 -0.01,0.02 -0.01,0.02 -0.02,0.01 -0.01,0.02 -0.02,0.02 -0.01,0.01 -0.02,0.02 -0.02,0.01 -0.02,0.01 -0.02,0.01 -0.02,0.01 -0.03,0.01 -0.02,0.01 -0.03,0.01 h -0.01 -0.02 -0.01 l -0.02,0.01 h -0.01 -0.02 -0.01 -0.02 c -0.25,0 -0.31,-0.08 -0.62,-0.42 l -2.55,-2.69 c -0.31,0.42 -2.27,3.11 -6.55,3.11 -8.47,0 -16.76,-7.5 -16.76,-15.38 0,-5.67 4.47,-9.82 10.7,-9.82 1.88,0 5.22,0.39 8.81,3.42 2.75,2.33 3.52,5.36 3.52,5.64 0,0.45 -0.42,0.45 -0.59,0.45 -0.46,0 -0.52,-0.17 -0.63,-0.55 -1.42,-4.78 -6.31,-7.7 -10.52,-7.7 -3.7,0 -7.81,1.99 -7.81,7.49 0,1.01 0.25,6.51 4.25,10.9 2.41,2.69 6.06,4.28 9.38,4.28 4.05,0 6.4,-2.92 6.4,-6.82 0,-0.97 -0.09,-1.22 -0.09,-1.43 0,-0.45 0.45,-0.45 0.62,-0.45 0.57,0 0.57,0.11 0.74,0.77 z"
           inkscape:connector-curvature="0"
           style="fill:#e22011;fill-opacity:1;stroke-width:0" /><path
           id="path1354"
           d="m 605.79,391.66 h 0.14 0.15 0.14 l 0.07,0.01 h 0.08 l 0.07,0.01 0.07,0.01 0.07,0.01 0.07,0.01 0.07,0.01 0.06,0.02 0.07,0.02 0.06,0.02 0.06,0.02 0.06,0.03 0.06,0.03 0.05,0.04 0.05,0.03 0.05,0.05 0.04,0.04 0.04,0.05 0.02,0.03 0.02,0.03 0.01,0.02 0.02,0.03 0.01,0.04 0.01,0.03 0.02,0.03 0.01,0.04 0.01,0.03 0.01,0.04 v 0.04 l 0.01,0.04 v 0.04 l 0.01,0.04 v 0.05 0.04 c 0,1 -0.95,1 -1.64,1 H 576 c -0.71,0 -1.65,0 -1.65,-1 0,-0.98 0.94,-0.98 1.69,-0.98 z"
           inkscape:connector-curvature="0"
           style="fill:#000000;fill-opacity:1;stroke-width:0" /><path
           id="path1356"
           d="m 605.84,381.98 h 0.07 0.06 l 0.14,0.01 h 0.14 0.07 l 0.07,0.01 0.07,0.01 h 0.06 l 0.07,0.01 0.07,0.02 0.07,0.01 0.06,0.02 0.07,0.02 0.06,0.02 0.06,0.02 0.05,0.03 0.06,0.03 0.05,0.04 0.05,0.04 0.05,0.04 0.04,0.05 0.02,0.02 0.02,0.03 0.02,0.02 0.02,0.03 0.01,0.03 0.02,0.03 0.01,0.03 0.01,0.03 0.02,0.04 0.01,0.03 0.01,0.04 0.01,0.04 v 0.04 l 0.01,0.04 v 0.04 l 0.01,0.04 v 0.05 0.04 c 0,1 -0.95,1 -1.69,1 h -29.75 c -0.75,0 -1.69,0 -1.69,-1 0,-1 0.94,-1 1.65,-1 z"
           inkscape:connector-curvature="0"
           style="fill:#000000;fill-opacity:1;stroke-width:0" /><path
           id="path1358"
           d="m 643.32,430.54 h 5.63 c -1.64,-7.38 -2.1,-9.52 -2.1,-12.84 0,-0.75 0,-2.1 0.41,-3.8 0.5,-2.19 1.05,-2.49 1.8,-2.49 0.98,0 2.03,0.89 2.03,1.89 0,0.3 0,0.41 -0.3,1.1 -1.44,3.59 -1.44,6.83 -1.44,8.22 0,2.64 0.35,5.34 0.9,7.92 h 5.68 c 0.64,0 2.44,0 2.44,1.7 0,1.19 -1.05,1.19 -2,1.19 h -16.69 c -1.09,0 -2.98,0 -5.17,-2.34 -1.75,-1.94 -3.04,-4.24 -3.04,-4.49 0,-0.05 0,-0.48 0.59,-0.48 0.41,0 0.5,0.18 0.79,0.59 2.46,3.83 5.35,3.83 6.33,3.83 h 2.85 c -1.6,-6.02 -4.28,-12.05 -6.38,-16.58 -0.4,-0.75 -0.4,-0.86 -0.4,-1.2 0,-0.96 0.79,-1.35 1.45,-1.35 1.5,0 1.89,1.39 2.48,3.24 0.71,2.3 0.71,2.39 1.35,4.89 z"
           inkscape:connector-curvature="0"
           style="fill:#000000;fill-opacity:1;stroke-width:0" /><path
           id="path1360"
           d="m 680.84,424.41 v 0.14 l -0.01,0.13 -0.02,0.13 -0.02,0.13 -0.03,0.13 -0.04,0.13 -0.04,0.12 -0.05,0.12 -0.05,0.12 -0.06,0.11 -0.06,0.11 -0.07,0.11 -0.08,0.1 -0.07,0.1 -0.09,0.1 -0.09,0.09 -0.09,0.09 -0.09,0.08 -0.1,0.08 -0.11,0.07 -0.1,0.07 -0.11,0.07 -0.12,0.05 -0.12,0.06 -0.12,0.04 -0.12,0.05 -0.12,0.03 -0.13,0.03 -0.13,0.02 -0.13,0.02 -0.14,0.01 h -0.13 c -1.44,0 -2.64,-1.18 -2.64,-2.64 0,-1.43 1.2,-2.64 2.64,-2.64 1.45,0 2.64,1.21 2.64,2.64 z"
           inkscape:connector-curvature="0"
           style="fill:#000000;fill-opacity:1;stroke-width:0" /><path
           id="path1362"
           d="m 710.55,438.55 v 0.01 0.02 l 0.01,0.02 v 0.02 l 0.01,0.03 0.01,0.03 v 0.04 l 0.01,0.04 0.01,0.04 0.01,0.05 0.01,0.04 0.02,0.05 0.01,0.06 0.01,0.05 0.03,0.12 0.03,0.13 0.04,0.13 0.03,0.14 0.04,0.15 0.04,0.15 0.04,0.15 0.08,0.31 0.08,0.32 0.04,0.15 0.04,0.15 0.04,0.14 0.03,0.14 0.04,0.13 0.03,0.13 0.03,0.11 0.02,0.06 0.01,0.05 0.01,0.05 0.01,0.05 0.02,0.04 0.01,0.04 0.01,0.04 0.01,0.03 0.01,0.03 v 0.03 l 0.01,0.02 0.01,0.02 v 0.01 0.01 c 0.08,0.28 1.08,2.02 2.21,2.86 0.37,0.27 1.31,0.97 2.81,0.97 0.34,0 1.22,-0.03 1.92,-0.48 -1.12,-0.32 -1.53,-1.3 -1.53,-1.93 0,-0.76 0.59,-1.28 1.39,-1.28 0.8,0 1.95,0.66 1.95,2.13 0,1.81 -1.92,2.53 -3.7,2.53 -1.81,0 -3.38,-0.72 -4.91,-2.47 -0.62,2.13 -2.75,2.47 -3.59,2.47 -1.28,0 -2.16,-0.8 -2.72,-1.77 -0.8,-1.36 -1.28,-3.39 -1.28,-3.56 0,-0.45 0.48,-0.45 0.59,-0.45 0.49,0 0.52,0.11 0.77,1.04 0.52,2.13 1.19,3.77 2.55,3.77 0.9,0 1.14,-0.77 1.14,-1.7 0,-0.67 -0.32,-1.96 -0.57,-2.89 -0.23,-0.96 -0.57,-2.38 -0.76,-3.14 l -1.11,-4.47 c -0.14,-0.44 -0.34,-1.32 -0.34,-1.42 0,-0.77 0.62,-1.11 1.18,-1.11 0.52,0 1.22,0.31 1.49,1 0.08,0.21 0.45,1.75 0.67,2.62 z"
           inkscape:connector-curvature="0"
           style="fill:#000000;fill-opacity:1;stroke-width:0" /><polyline
           id="polyline1364"
           points="702,423 721.92,423 721.92,425.04 702,425.04 "
           style="fill:#000000;fill-opacity:1;fill-rule:nonzero;stroke-width:0" /><path
           id="path1366"
           d="m 719.83,401.14 h -1.18 c -0.1,-0.76 -0.46,-2.82 -0.91,-3.17 -0.27,-0.2 -2.96,-0.2 -3.44,-0.2 h -6.42 c 3.65,3.23 4.87,4.2 6.97,5.84 2.58,2.07 4.98,4.22 4.98,7.53 0,4.22 -3.68,6.8 -8.15,6.8 -4.32,0 -7.25,-3.03 -7.25,-6.23 0,-1.78 1.5,-1.96 1.85,-1.96 0.83,0 1.85,0.6 1.85,1.85 0,0.62 -0.25,1.84 -2.06,1.84 1.08,2.47 3.45,3.24 5.09,3.24 3.49,0 5.3,-2.71 5.3,-5.54 0,-3.03 -2.16,-5.43 -3.28,-6.68 l -8.4,-8.3 c -0.35,-0.31 -0.35,-0.39 -0.35,-1.36 h 14.35 z"
           inkscape:connector-curvature="0"
           style="fill:#000000;fill-opacity:1;stroke-width:0" /><polyline
           id="polyline1368"
           points="630,387 728.04,387 728.04,389.04 630,389.04 "
           style="fill:#000000;fill-opacity:1;fill-rule:nonzero;stroke-width:0" /><path
           id="path1370"
           d="m 647.28,359.74 h 5.63 c -1.64,-7.38 -2.1,-9.52 -2.1,-12.85 0,-0.75 0,-2.09 0.41,-3.79 0.5,-2.19 1.05,-2.49 1.8,-2.49 0.98,0 2.03,0.89 2.03,1.89 0,0.3 0,0.41 -0.3,1.1 -1.44,3.59 -1.44,6.83 -1.44,8.22 0,2.64 0.35,5.34 0.89,7.92 h 5.69 c 0.64,0 2.44,0 2.44,1.7 0,1.19 -1.05,1.19 -2,1.19 h -16.69 c -1.09,0 -2.98,0 -5.17,-2.34 -1.75,-1.94 -3.05,-4.24 -3.05,-4.49 0,-0.05 0,-0.48 0.6,-0.48 0.4,0 0.5,0.18 0.79,0.59 2.46,3.83 5.35,3.83 6.33,3.83 h 2.84 c -1.59,-6.02 -4.28,-12.05 -6.37,-16.58 -0.41,-0.75 -0.41,-0.86 -0.41,-1.2 0,-0.96 0.8,-1.35 1.46,-1.35 1.5,0 1.89,1.39 2.48,3.24 0.7,2.29 0.7,2.39 1.34,4.89 z"
           inkscape:connector-curvature="0"
           style="fill:#000000;fill-opacity:1;stroke-width:0" /><path
           id="path1372"
           d="m 684.92,353.61 v 0.14 l -0.01,0.13 -0.02,0.13 -0.02,0.13 -0.03,0.13 -0.04,0.13 -0.04,0.12 -0.05,0.12 -0.05,0.12 -0.06,0.11 -0.06,0.11 -0.07,0.11 -0.07,0.1 -0.08,0.1 -0.09,0.1 -0.08,0.09 -0.1,0.09 -0.09,0.08 -0.1,0.08 -0.1,0.07 -0.11,0.07 -0.11,0.06 -0.12,0.06 -0.11,0.06 -0.12,0.04 -0.13,0.04 -0.12,0.04 -0.13,0.03 -0.13,0.02 -0.13,0.02 -0.13,0.01 h -0.14 c -1.44,0 -2.64,-1.18 -2.64,-2.64 0,-1.43 1.2,-2.64 2.64,-2.64 1.45,0 2.64,1.21 2.64,2.64 z"
           inkscape:connector-curvature="0"
           style="fill:#000000;fill-opacity:1;stroke-width:0" /><path
           id="path1374"
           d="m 704.59,344.1 -0.02,-0.07 -0.01,-0.08 -0.02,-0.07 -0.02,-0.08 -0.03,-0.16 -0.04,-0.16 -0.04,-0.16 -0.04,-0.16 -0.03,-0.16 -0.04,-0.16 -0.02,-0.08 -0.01,-0.07 -0.02,-0.07 -0.01,-0.07 -0.02,-0.07 -0.01,-0.07 -0.02,-0.06 -0.01,-0.06 -0.01,-0.05 -0.01,-0.06 -0.01,-0.05 v -0.04 l -0.01,-0.04 v -0.04 l -0.01,-0.03 v -0.02 c 0,-0.89 0.71,-1.35 1.44,-1.35 0.61,0 1.5,0.39 1.84,1.39 0.11,0.21 1.8,6.99 2,7.88 0.39,1.64 1.3,5.12 1.6,6.48 0.2,0.64 1.59,2.99 2.78,4.08 0.41,0.35 1.84,1.64 4,1.64 1.28,0 2.03,-0.59 2.08,-0.59 -1.49,-0.25 -2.58,-1.45 -2.58,-2.74 0,-0.79 0.55,-1.75 1.89,-1.75 1.34,0 2.73,1.14 2.73,2.94 0,1.75 -1.59,3.24 -4.12,3.24 -3.25,0 -5.44,-2.44 -6.39,-3.83 -0.39,2.23 -2.19,3.83 -4.53,3.83 -2.28,0 -3.24,-1.94 -3.69,-2.83 -0.89,-1.71 -1.55,-4.69 -1.55,-4.85 0,-0.5 0.5,-0.5 0.61,-0.5 0.5,0 0.55,0.07 0.85,1.16 0.84,3.53 1.84,5.92 3.64,5.92 0.84,0 1.54,-0.39 1.54,-2.28 0,-1.05 -0.15,-1.61 -0.79,-4.19 z"
           inkscape:connector-curvature="0"
           style="fill:#000000;fill-opacity:1;stroke-width:0" /><path
           id="path1380"
           d="m 823.32,391.3 v 0.74 l -0.01,0.75 -0.02,0.75 -0.04,0.74 -0.04,0.75 -0.06,0.74 -0.08,0.74 -0.09,0.73 -0.12,0.73 -0.14,0.73 -0.16,0.72 -0.19,0.72 -0.22,0.72 -0.24,0.7 -0.28,0.7 -0.15,0.35 -0.16,0.34 c -2.28,4.8 -6.37,5.6 -8.47,5.6 -2.98,0 -6.62,-1.3 -8.67,-5.94 -1.59,-3.44 -1.84,-7.33 -1.84,-11.31 0,-3.74 0.2,-8.22 2.25,-12 2.14,-4.03 5.78,-5.03 8.21,-5.03 v 1.09 c -1.93,0 -4.89,1.25 -5.78,6.03 -0.54,2.99 -0.54,7.56 -0.54,10.52 0,3.18 0,6.47 0.4,9.15 0.94,5.94 4.67,6.38 5.92,6.38 1.65,0 4.94,-0.89 5.88,-5.83 0.5,-2.78 0.5,-6.58 0.5,-9.7 0,-3.75 0,-7.13 -0.55,-10.32 -0.75,-4.73 -3.59,-6.23 -5.83,-6.23 v 0 -1.09 c 2.69,0 6.47,1.04 8.68,5.78 1.59,3.43 1.84,7.31 1.84,11.25 z"
           inkscape:connector-curvature="0"
           style="fill:#000000;fill-opacity:1;stroke-width:0" /><path
           id="path1382"
           d="m 834.92,378 -0.01,0.13 -0.01,0.14 -0.01,0.13 -0.03,0.13 -0.03,0.12 -0.03,0.13 -0.04,0.12 -0.05,0.12 -0.05,0.12 -0.06,0.11 -0.07,0.11 -0.06,0.11 -0.08,0.1 -0.08,0.1 -0.08,0.1 -0.09,0.09 -0.09,0.09 -0.1,0.08 -0.1,0.08 -0.1,0.07 -0.11,0.07 -0.11,0.07 -0.11,0.06 -0.12,0.05 -0.12,0.05 -0.12,0.04 -0.12,0.04 -0.13,0.03 -0.13,0.02 -0.13,0.02 -0.14,0.01 h -0.13 c -1.44,0 -2.64,-1.2 -2.64,-2.64 0,-1.44 1.2,-2.64 2.64,-2.64 1.45,0 2.64,1.2 2.64,2.64 z"
           inkscape:connector-curvature="0"
           style="fill:#000000;fill-opacity:1;stroke-width:0" /><path
           id="path1384"
           d="m 861.53,385.38 -0.01,0.55 -0.04,0.54 -0.06,0.54 -0.08,0.53 -0.1,0.53 -0.13,0.51 -0.14,0.5 -0.17,0.5 -0.18,0.48 -0.21,0.47 -0.22,0.46 -0.24,0.44 -0.26,0.43 -0.28,0.41 -0.29,0.4 -0.31,0.38 -0.33,0.36 -0.34,0.35 -0.35,0.32 -0.37,0.31 -0.39,0.29 -0.39,0.26 -0.41,0.25 -0.42,0.22 -0.44,0.2 -0.44,0.17 -0.46,0.15 -0.46,0.13 -0.48,0.09 -0.48,0.07 -0.49,0.05 -0.5,0.01 c -2.39,0 -4.53,-0.8 -6.33,-2.53 v 9.7 c 1,-0.29 2.64,-0.64 4.24,-0.64 6.12,0 9.6,4.53 9.6,5.19 0,0.3 -0.14,0.55 -0.5,0.55 -0.04,0 -0.14,0 -0.39,-0.16 -1,-0.45 -3.43,-1.44 -6.78,-1.44 -1.98,0 -4.28,0.35 -6.62,1.39 -0.39,0.14 -0.5,0.14 -0.6,0.14 -0.5,0 -0.5,-0.39 -0.5,-1.18 v -14.75 c 0,-0.89 0,-1.3 0.71,-1.3 0.34,0 0.43,0.16 0.64,0.45 0.54,0.8 2.39,3.49 6.42,3.49 2.59,0 3.84,-2.3 4.23,-3.19 0.82,-1.84 0.91,-3.78 0.91,-6.28 0,-1.74 0,-4.74 -1.2,-6.83 -1.19,-1.94 -3.04,-3.23 -5.33,-3.23 -3.64,0 -6.47,2.64 -7.33,5.57 0.16,-0.04 0.31,-0.09 0.86,-0.09 1.64,0 2.48,1.25 2.48,2.44 0,1.2 -0.84,2.44 -2.48,2.44 -0.7,0 -2.45,-0.35 -2.45,-2.64 0,-4.29 3.43,-9.11 9.03,-9.11 5.76,0 10.86,4.78 10.86,11.11 z"
           inkscape:connector-curvature="0"
           style="fill:#000000;fill-opacity:1;stroke-width:0" /><path
           id="path1354-9"
           d="m 783.76,395.9 h 0.14 0.15 0.14 l 0.07,0.01 h 0.08 l 0.07,0.01 0.07,0.01 0.07,0.01 0.07,0.01 0.07,0.01 0.06,0.02 0.07,0.02 0.06,0.02 0.06,0.02 0.06,0.03 0.06,0.03 0.05,0.04 0.05,0.03 0.05,0.05 0.04,0.04 0.04,0.05 0.02,0.03 0.02,0.03 0.01,0.02 0.02,0.03 0.01,0.04 0.01,0.03 0.02,0.03 0.01,0.04 0.01,0.03 0.01,0.04 v 0.04 l 0.01,0.04 v 0.04 l 0.01,0.04 v 0.05 0.04 c -8e-5,1 -0.95008,1 -1.64008,1 h -29.84 c -0.71,0 -1.65,0 -1.65,-1 0,-0.98 0.94,-0.98 1.69,-0.98 z"
           inkscape:connector-curvature="0"
           style="font-style:normal;font-variant:normal;font-weight:normal;font-stretch:normal;letter-spacing:normal;word-spacing:normal;text-anchor:start;fill:#000000;fill-opacity:1;fill-rule:evenodd;stroke:#000000;stroke-width:0;stroke-linecap:butt;stroke-linejoin:miter;stroke-miterlimit:10.43299961;stroke-dasharray:none;stroke-dashoffset:0;stroke-opacity:1" /><path
           id="path1356-3"
           d="m 783.81,386.22 h 0.07 0.06 l 0.14,0.01 h 0.14 0.07 l 0.07,0.01 0.07,0.01 h 0.06 l 0.07,0.01 0.07,0.02 0.07,0.01 0.06,0.02 0.07,0.02 0.06,0.02 0.06,0.02 0.05,0.03 0.06,0.03 0.05,0.04 0.05,0.04 0.05,0.04 0.04,0.05 0.02,0.02 0.02,0.03 0.02,0.02 0.02,0.03 0.01,0.03 0.02,0.03 0.01,0.03 0.01,0.03 0.02,0.04 0.01,0.03 0.01,0.04 0.01,0.04 v 0.04 l 0.01,0.04 v 0.04 l 0.01,0.04 v 0.05 0.04 c 0,1 -0.95,1 -1.69,1 h -29.75008 c -0.75,0 -1.69,0 -1.69,-1 0,-1 0.94,-1 1.65,-1 z"
           inkscape:connector-curvature="0"
           style="font-style:normal;font-variant:normal;font-weight:normal;font-stretch:normal;letter-spacing:normal;word-spacing:normal;text-anchor:start;fill:#000000;fill-opacity:1;fill-rule:evenodd;stroke:#000000;stroke-width:0;stroke-linecap:butt;stroke-linejoin:miter;stroke-miterlimit:10.43299961;stroke-dasharray:none;stroke-dashoffset:0;stroke-opacity:1" /></g>    </g>
    <path
       style="fill:none;stroke:#000000;stroke-width:0.2;stroke-linecap:butt;stroke-linejoin:miter;stroke-miterlimit:4;stroke-dasharray:0.2, 0.2;stroke-dashoffset:0;stroke-opacity:1"
       d="M 75.298257,62.276776 V 186.16182"
       id="path1449"
       inkscape:connector-curvature="0"
       sodipodi:nodetypes="cc" />
    <path
       style="fill:none;stroke:#000000;stroke-width:0.2;stroke-linecap:butt;stroke-linejoin:miter;stroke-miterlimit:4;stroke-dasharray:0.2, 0.2;stroke-dashoffset:0;stroke-opacity:1"
       d="M 13.682737,124.06223 H 137.28093"
       id="path1453"
       inkscape:connector-curvature="0"
       sodipodi:nodetypes="cc" />
    <circle
       style="opacity:1;fill:#000000;fill-opacity:1;fill-rule:nonzero;stroke:none;stroke-width:0.47115389;stroke-miterlimit:4;stroke-dasharray:none;stroke-dashoffset:0;stroke-opacity:1"
       id="path842-94"
       cx="75.298256"
       cy="124.06223"
       r="0.57877612" />
    <rect
       style="opacity:1;fill:none;fill-opacity:1;fill-rule:nonzero;stroke:#000000;stroke-width:0.2;stroke-miterlimit:4;stroke-dasharray:none;stroke-dashoffset:0;stroke-opacity:1"
       id="rect1474"
       width="122.84227"
       height="75.973198"
       x="170.08928"
       y="98.518044"
       ry="9.8273811" />
    <path
       style="fill:none;stroke:#000000;stroke-width:0.7;stroke-linecap:butt;stroke-linejoin:miter;stroke-miterlimit:4;stroke-dasharray:none;stroke-opacity:1;marker-start:url(#marker1744);marker-end:url(#Arrow1Mend)"
       d="m 75.851042,124.91764 57.899138,0"
       id="path1479"
       inkscape:connector-curvature="0"
       sodipodi:nodetypes="cc" />
    <g
       id="g3444"
       transform="rotate(-50.43709,156.66123,127.1276)">
      <g
         word-spacing="normal"
         letter-spacing="normal"
         font-size-adjust="none"
         font-stretch="normal"
         font-weight="normal"
         font-variant="normal"
         font-style="normal"
         stroke-miterlimit="10.433"
         xml:space="preserve"
         transform="matrix(0.2367444,0,0,-0.2367444,-12.786978,199.41608)"
         id="g3442"
         style="font-style:normal;font-variant:normal;font-weight:normal;font-stretch:normal;letter-spacing:normal;word-spacing:normal;text-anchor:start;fill:none;fill-opacity:1;fill-rule:evenodd;stroke:#000000;stroke-linecap:butt;stroke-linejoin:miter;stroke-miterlimit:10.43299961;stroke-dasharray:none;stroke-dashoffset:0;stroke-opacity:1"><path
           id="path3436"
           d="m 481.22,440.23 v 0 0.01 0 0.01 0.02 0.01 0.02 0.02 l -0.01,0.02 v 0.02 l -0.01,0.02 v 0.02 l -0.01,0.02 -0.01,0.03 -0.01,0.02 -0.01,0.03 -0.02,0.02 -0.01,0.03 -0.02,0.02 -0.02,0.02 -0.02,0.03 -0.02,0.01 -0.01,0.01 -0.01,0.01 -0.02,0.01 -0.01,0.01 -0.02,0.01 -0.01,0.01 -0.02,0.01 -0.01,0.01 -0.02,0.01 h -0.02 l -0.02,0.01 -0.02,0.01 h -0.02 l -0.02,0.01 -0.03,0.01 h -0.02 -0.02 l -0.03,0.01 h -0.03 -0.02 l -0.03,0.01 h -0.03 -0.03 c -0.75,0 -5.48,-0.46 -6.33,-0.55 -0.4,-0.05 -0.7,-0.3 -0.7,-0.95 0,-0.6 0.45,-0.6 1.2,-0.6 2.39,0 2.49,-0.34 2.49,-0.84 l -0.14,-1 -3,-11.81 c -0.89,1.84 -2.35,3.18 -4.58,3.18 l 0.05,-1.09 c 3.23,0 3.93,-4.08 3.93,-4.37 0,-0.32 -0.09,-0.61 -0.14,-0.86 l -2.5,-9.77 c -0.25,-0.89 -0.25,-0.98 -1,-1.84 -2.18,-2.74 -4.23,-3.53 -5.62,-3.53 -2.49,0 -3.19,2.73 -3.19,4.68 0,2.49 1.59,8.61 2.74,10.91 1.54,2.94 3.79,4.78 5.78,4.78 l -0.05,1.09 c -5.83,0 -12,-7.31 -12,-14.59 0,-4.69 2.73,-7.97 6.62,-7.97 0.99,0 3.49,0.21 6.47,3.74 0.41,-2.1 2.14,-3.74 4.53,-3.74 1.75,0 2.9,1.14 3.69,2.74 0.85,1.79 1.5,4.84 1.5,4.93 0,0.5 -0.45,0.5 -0.59,0.5 -0.5,0 -0.55,-0.2 -0.7,-0.9 -0.85,-3.24 -1.75,-6.17 -3.79,-6.17 -1.34,0 -1.5,1.29 -1.5,2.29 0,1.19 0.1,1.55 0.3,2.39 z"
           inkscape:connector-curvature="0"
           style="fill:#11b6e2;fill-opacity:1;stroke-width:0" /><path
           id="path3438"
           d="m 488.61,402.95 -0.11,-0.18 -0.11,-0.16 -0.12,-0.17 -0.11,-0.15 -0.11,-0.16 -0.12,-0.14 -0.11,-0.14 -0.12,-0.14 -0.11,-0.13 -0.12,-0.12 -0.12,-0.12 -0.12,-0.11 -0.12,-0.11 -0.12,-0.11 -0.13,-0.09 -0.13,-0.1 -0.13,-0.08 -0.13,-0.09 -0.13,-0.07 -0.14,-0.08 -0.14,-0.06 -0.15,-0.07 -0.15,-0.05 -0.15,-0.06 -0.16,-0.04 -0.16,-0.05 -0.17,-0.04 -0.17,-0.03 -0.17,-0.03 -0.18,-0.02 -0.19,-0.02 -0.19,-0.02 c -0.34,-0.03 -0.79,-0.03 -0.79,-0.73 0,-0.38 0.31,-0.52 0.48,-0.52 0.91,0 2.06,0.14 3,0.14 1.11,0 2.55,-0.14 3.59,-0.14 0.18,0 0.69,0 0.69,0.77 0,0.45 -0.45,0.48 -0.58,0.48 -0.28,0.05 -1.54,0.11 -1.54,1.05 0,0.42 0.36,1.01 0.53,1.33 l 2.78,4.31 h 9.97 l -0.17,1.26 h -8.96 l 7.32,11.4 1.64,-11.4 0.17,-1.26 0.84,-5.78 c -0.14,-0.35 -0.36,-0.91 -2.4,-0.91 -0.43,0 -0.91,0 -0.91,-0.76 0,-0.14 0.09,-0.49 0.55,-0.49 1.01,0 3.48,0.14 4.5,0.14 0.62,0 1.42,-0.03 2.06,-0.03 0.62,-0.05 1.36,-0.11 1.98,-0.11 0.46,0 0.69,0.28 0.69,0.74 0,0.51 -0.41,0.51 -0.97,0.51 -2.01,0 -2.09,0.28 -2.2,1.13 l -3.06,21.5 c -0.11,0.72 -0.18,0.97 -0.83,0.97 -0.67,0 -0.88,-0.32 -1.19,-0.8 z"
           inkscape:connector-curvature="0"
           style="fill:#11b6e2;fill-opacity:1;stroke-width:0" /><path
           id="path3440"
           d="m 518.07,401.48 -0.03,-0.11 -0.03,-0.1 -0.03,-0.1 -0.03,-0.09 -0.02,-0.09 -0.03,-0.09 -0.03,-0.08 -0.04,-0.07 -0.03,-0.07 -0.04,-0.07 -0.05,-0.06 -0.05,-0.06 -0.05,-0.05 -0.06,-0.05 -0.06,-0.05 -0.07,-0.04 -0.08,-0.04 -0.08,-0.03 -0.1,-0.04 -0.1,-0.03 -0.11,-0.02 -0.06,-0.02 -0.06,-0.01 -0.06,-0.01 -0.07,-0.01 -0.07,-0.01 -0.07,-0.01 h -0.08 l -0.07,-0.01 -0.08,-0.01 h -0.09 l -0.08,-0.01 -0.09,-0.01 h -0.09 -0.1 l -0.1,-0.01 h -0.1 -0.11 -0.11 l -0.11,-0.01 h -0.12 -0.12 -0.12 c -0.58,0 -1.03,0 -1.03,-0.73 0,-0.52 0.4,-0.52 1.03,-0.52 h 13.48 c 5.86,0 10.36,4 10.36,7.45 0,2.49 -2.26,4.61 -5.97,4.99 4.22,0.76 7.75,3.42 7.75,6.41 0,2.65 -2.68,4.95 -7.21,4.95 l -0.57,-1.25 c 3.57,0 4.36,-2.35 4.36,-3.66 0,-2.83 -3.17,-6.03 -7.84,-6.03 h -5.7 l -0.25,-0.98 h 7.38 c 3.27,0 4.54,-2.16 4.54,-4.18 0,-3.45 -3.54,-6.45 -7.74,-6.45 h -5.62 c -1.08,0 -1.11,0.05 -1.11,0.36 0,0.03 0,0.2 0.14,0.72 l 2.41,9.55 0.25,0.98 2.12,8.5 c 0.26,1.08 0.31,1.19 1.76,1.19 h 5.3 l 0.57,1.25 h -12.69 c -0.66,0 -1.11,0 -1.11,-0.77 0,-0.48 0.42,-0.48 1.11,-0.48 0.03,0 0.7,0 1.32,-0.08 0.74,-0.06 0.8,-0.14 0.8,-0.48 0,-0.07 0,-0.24 -0.14,-0.77 z"
           inkscape:connector-curvature="0"
           style="fill:#11b6e2;fill-opacity:1;stroke-width:0" /></g>    </g>
    <g
       id="g3603"
       transform="matrix(0.80538627,0,0,0.80538627,68.773835,78.327472)">
      <g
         word-spacing="normal"
         letter-spacing="normal"
         font-size-adjust="none"
         font-stretch="normal"
         font-weight="normal"
         font-variant="normal"
         font-style="normal"
         stroke-miterlimit="10.433"
         xml:space="preserve"
         transform="matrix(0.3,0,0,-0.3,-52.5,222.75)"
         id="g3601"
         style="font-style:normal;font-variant:normal;font-weight:normal;font-stretch:normal;letter-spacing:normal;word-spacing:normal;text-anchor:start;fill:none;fill-opacity:1;fill-rule:evenodd;stroke:#000000;stroke-linecap:butt;stroke-linejoin:miter;stroke-miterlimit:10.43299961;stroke-dasharray:none;stroke-dashoffset:0;stroke-opacity:1"><path
           id="path3593"
           d="m 481.22,440.23 v 0 0.01 0 0.01 0.02 0.01 0.02 0.02 l -0.01,0.02 v 0.02 l -0.01,0.02 v 0.02 l -0.01,0.02 -0.01,0.03 -0.01,0.02 -0.01,0.03 -0.02,0.02 -0.01,0.03 -0.02,0.02 -0.02,0.02 -0.02,0.03 -0.02,0.01 -0.01,0.01 -0.01,0.01 -0.02,0.01 -0.01,0.01 -0.02,0.01 -0.01,0.01 -0.02,0.01 -0.01,0.01 -0.02,0.01 h -0.02 l -0.02,0.01 -0.02,0.01 h -0.02 l -0.02,0.01 -0.03,0.01 h -0.02 -0.02 l -0.03,0.01 h -0.03 -0.02 l -0.03,0.01 h -0.03 -0.03 c -0.75,0 -5.48,-0.46 -6.33,-0.55 -0.4,-0.05 -0.7,-0.3 -0.7,-0.95 0,-0.6 0.45,-0.6 1.2,-0.6 2.39,0 2.49,-0.34 2.49,-0.84 l -0.14,-1 -3,-11.81 c -0.89,1.84 -2.35,3.18 -4.58,3.18 l 0.05,-1.09 c 3.23,0 3.93,-4.08 3.93,-4.37 0,-0.32 -0.09,-0.61 -0.14,-0.86 l -2.5,-9.77 c -0.25,-0.89 -0.25,-0.98 -1,-1.84 -2.18,-2.74 -4.23,-3.53 -5.62,-3.53 -2.49,0 -3.19,2.73 -3.19,4.68 0,2.49 1.59,8.61 2.74,10.91 1.54,2.94 3.79,4.78 5.78,4.78 l -0.05,1.09 c -5.83,0 -12,-7.31 -12,-14.59 0,-4.69 2.73,-7.97 6.62,-7.97 0.99,0 3.49,0.21 6.47,3.74 0.41,-2.1 2.14,-3.74 4.53,-3.74 1.75,0 2.9,1.14 3.69,2.74 0.85,1.79 1.5,4.84 1.5,4.93 0,0.5 -0.45,0.5 -0.59,0.5 -0.5,0 -0.55,-0.2 -0.7,-0.9 -0.85,-3.24 -1.75,-6.17 -3.79,-6.17 -1.34,0 -1.5,1.29 -1.5,2.29 0,1.19 0.1,1.55 0.3,2.39 z"
           inkscape:connector-curvature="0"
           style="fill:#e2b611;fill-opacity:1;stroke-width:0" /><path
           id="path3595"
           d="m 490.41,444.53952 v 0 0 l 0.01,0.01 v 0.01 l 0.01,0.01 0.01,0.01 v 0.02 l 0.01,0.01 0.01,0.02 0.01,0.03 0.01,0.02 0.01,0.02 0.01,0.03 0.01,0.03 0.01,0.02 0.02,0.03 0.01,0.04 0.01,0.03 0.01,0.03 0.01,0.03 0.01,0.04 0.01,0.03 0.01,0.04 0.01,0.04 0.01,0.03 v 0.04 l 0.01,0.03 0.01,0.04 v 0.04 0.03 l 0.01,0.04 v 0.04 0.03 c 0,0.91 -0.8,1.47 -1.55,1.47 -1.01,0 -1.29,-0.76 -1.42,-1.14 l -3.83,-10.78 c -0.11,-0.31 -0.11,-0.38 -0.11,-0.41 0,-0.39 1.05,-0.64 1.08,-0.64 0.22,0 0.27,0.13 0.42,0.42 z"
           inkscape:connector-curvature="0"
           style="fill:#e2b611;fill-opacity:1;stroke-width:0" /><path
           id="path3597"
           d="m 488.61,398.03 -0.11,-0.18 -0.11,-0.17 -0.12,-0.16 -0.11,-0.16 -0.11,-0.15 -0.12,-0.14 -0.11,-0.14 -0.12,-0.14 -0.11,-0.13 -0.12,-0.12 -0.12,-0.12 -0.12,-0.12 -0.12,-0.1 -0.12,-0.11 -0.13,-0.1 -0.13,-0.09 -0.13,-0.09 -0.13,-0.08 -0.13,-0.08 -0.14,-0.07 -0.14,-0.06 -0.15,-0.07 -0.15,-0.06 -0.15,-0.05 -0.16,-0.05 -0.16,-0.04 -0.17,-0.04 -0.17,-0.03 -0.17,-0.03 -0.18,-0.02 -0.19,-0.02 -0.19,-0.02 c -0.34,-0.03 -0.79,-0.03 -0.79,-0.73 0,-0.38 0.31,-0.52 0.48,-0.52 0.91,0 2.06,0.14 3,0.14 1.11,0 2.55,-0.14 3.59,-0.14 0.18,0 0.69,0 0.69,0.77 0,0.45 -0.45,0.48 -0.58,0.48 -0.28,0.05 -1.54,0.11 -1.54,1.05 0,0.42 0.36,1.01 0.53,1.32 l 2.78,4.32 h 9.97 l -0.17,1.26 h -8.96 l 7.32,11.39 1.64,-11.39 0.17,-1.26 0.84,-5.78 c -0.14,-0.35 -0.36,-0.91 -2.4,-0.91 -0.43,0 -0.91,0 -0.91,-0.77 0,-0.14 0.09,-0.48 0.55,-0.48 1.01,0 3.48,0.14 4.5,0.14 0.62,0 1.42,-0.03 2.06,-0.03 0.62,-0.05 1.36,-0.11 1.98,-0.11 0.46,0 0.69,0.28 0.69,0.73 0,0.52 -0.41,0.52 -0.97,0.52 -2.01,0 -2.09,0.28 -2.2,1.12 l -3.06,21.5 c -0.11,0.72 -0.18,0.97 -0.83,0.97 -0.67,0 -0.88,-0.31 -1.19,-0.79 z"
           inkscape:connector-curvature="0"
           style="fill:#e2b611;fill-opacity:1;stroke-width:0" /><path
           id="path3599"
           d="m 518.07,396.56 -0.03,-0.11 -0.03,-0.1 -0.03,-0.1 -0.03,-0.1 -0.02,-0.08 -0.03,-0.09 -0.03,-0.08 -0.04,-0.07 -0.03,-0.07 -0.04,-0.07 -0.05,-0.06 -0.05,-0.06 -0.05,-0.05 -0.06,-0.05 -0.06,-0.05 -0.07,-0.04 -0.08,-0.04 -0.08,-0.04 -0.1,-0.03 -0.1,-0.03 -0.11,-0.02 -0.06,-0.02 -0.06,-0.01 -0.06,-0.01 -0.07,-0.01 -0.07,-0.01 -0.07,-0.01 -0.08,-0.01 h -0.07 l -0.08,-0.01 -0.09,-0.01 h -0.08 l -0.09,-0.01 h -0.09 l -0.1,-0.01 h -0.1 -0.1 -0.11 l -0.11,-0.01 h -0.11 -0.12 -0.12 -0.12 c -0.58,0 -1.03,0 -1.03,-0.73 0,-0.52 0.4,-0.52 1.03,-0.52 h 13.48 c 5.86,0 10.36,4 10.36,7.45 0,2.49 -2.26,4.61 -5.97,4.99 4.22,0.76 7.75,3.42 7.75,6.4 0,2.66 -2.68,4.96 -7.21,4.96 l -0.57,-1.25 c 3.57,0 4.36,-2.35 4.36,-3.66 0,-2.83 -3.17,-6.03 -7.84,-6.03 h -5.7 l -0.25,-0.99 h 7.38 c 3.27,0 4.54,-2.15 4.54,-4.17 0,-3.45 -3.54,-6.45 -7.74,-6.45 h -5.62 c -1.08,0 -1.11,0.05 -1.11,0.36 0,0.03 0,0.2 0.14,0.72 l 2.41,9.54 0.25,0.99 2.12,8.5 c 0.26,1.08 0.31,1.19 1.76,1.19 h 5.3 l 0.57,1.25 h -12.69 c -0.66,0 -1.11,0 -1.11,-0.77 0,-0.48 0.42,-0.48 1.11,-0.48 0.03,0 0.7,0 1.32,-0.08 0.74,-0.06 0.8,-0.14 0.8,-0.49 0,-0.06 0,-0.23 -0.14,-0.76 z"
           inkscape:connector-curvature="0"
           style="fill:#e2b611;fill-opacity:1;stroke-width:0" /></g>    </g>
    <g
       id="g3769"
       transform="translate(-19.767377,111.81706)">
      <g
         word-spacing="normal"
         letter-spacing="normal"
         font-size-adjust="none"
         font-stretch="normal"
         font-weight="normal"
         font-variant="normal"
         font-style="normal"
         stroke-miterlimit="10.433"
         xml:space="preserve"
         transform="matrix(0.238912,0,0,-0.238912,-24.551017,198.73386)"
         id="g3767"
         style="font-style:normal;font-variant:normal;font-weight:normal;font-stretch:normal;letter-spacing:normal;word-spacing:normal;text-anchor:start;fill:none;fill-opacity:1;fill-rule:evenodd;stroke:#000000;stroke-linecap:butt;stroke-linejoin:miter;stroke-miterlimit:10.43299961;stroke-dasharray:none;stroke-dashoffset:0;stroke-opacity:1"><path
           id="path3759"
           d="m 485.17518,446.55829 v 0 0.01 0 0.01 0.02 0.01 0.02 0.02 l -0.01,0.02 v 0.02 l -0.01,0.02 v 0.02 l -0.01,0.02 -0.01,0.03 -0.01,0.02 -0.01,0.03 -0.02,0.02 -0.01,0.03 -0.02,0.02 -0.02,0.02 -0.02,0.03 -0.02,0.01 -0.01,0.01 -0.01,0.01 -0.02,0.01 -0.01,0.01 -0.02,0.01 -0.01,0.01 -0.02,0.01 -0.01,0.01 -0.02,0.01 h -0.02 l -0.02,0.01 -0.02,0.01 h -0.02 l -0.02,0.01 -0.03,0.01 h -0.02 -0.02 l -0.03,0.01 h -0.03 -0.02 l -0.03,0.01 h -0.03 -0.03 c -0.75,0 -5.48,-0.46 -6.33,-0.55 -0.4,-0.05 -0.7,-0.3 -0.7,-0.95 0,-0.6 0.45,-0.6 1.2,-0.6 2.39,0 2.49,-0.34 2.49,-0.84 l -0.14,-1 -3,-11.81 c -0.89,1.84 -2.35,3.18 -4.58,3.18 l 0.05,-1.09 c 3.23,0 3.93,-4.08 3.93,-4.37 0,-0.32 -0.09,-0.61 -0.14,-0.86 l -2.5,-9.77 c -0.25,-0.89 -0.25,-0.98 -1,-1.84 -2.18,-2.74 -4.23,-3.53 -5.62,-3.53 -2.49,0 -3.19,2.73 -3.19,4.68 0,2.49 1.59,8.61 2.74,10.91 1.54,2.94 3.79,4.78 5.78,4.78 l -0.05,1.09 c -5.83,0 -12,-7.31 -12,-14.59 0,-4.69 2.73,-7.97 6.62,-7.97 0.99,0 3.49,0.21 6.47,3.74 0.41,-2.1 2.14,-3.74 4.53,-3.74 1.75,0 2.9,1.14 3.69,2.74 0.85,1.79 1.5,4.84 1.5,4.93 0,0.5 -0.45,0.5 -0.59,0.5 -0.5,0 -0.55,-0.2 -0.7,-0.9 -0.85,-3.24 -1.75,-6.17 -3.79,-6.17 -1.34,0 -1.5,1.29 -1.5,2.29 0,1.19 0.1,1.55 0.3,2.39 z"
           inkscape:connector-curvature="0"
           style="fill:#e22011;fill-opacity:1;stroke-width:0" /><path
           id="path3761"
           d="m 493.80583,450.95841 v 0 0 l 0.01,0.01 v 0.01 l 0.01,0.01 0.01,0.01 v 0.02 l 0.01,0.01 0.01,0.02 0.01,0.03 0.01,0.02 0.01,0.02 0.01,0.03 0.01,0.03 0.01,0.02 0.02,0.03 0.01,0.04 0.01,0.03 0.01,0.03 0.01,0.03 0.01,0.04 0.01,0.03 0.01,0.04 0.01,0.04 0.01,0.03 v 0.04 l 0.01,0.03 0.01,0.04 v 0.04 0.03 l 0.01,0.04 v 0.04 0.03 c 0,0.91 -0.8,1.47 -1.55,1.47 -1.01,0 -1.29,-0.76 -1.42,-1.14 l -3.83,-10.78 c -0.11,-0.31 -0.11,-0.38 -0.11,-0.41 0,-0.39 1.05,-0.64 1.08,-0.64 0.22,0 0.27,0.13 0.42,0.42 z"
           inkscape:connector-curvature="0"
           style="fill:#e22011;fill-opacity:1;stroke-width:0" /><path
           id="path3763"
           d="m 492.56518,404.35829 -0.11,-0.18 -0.11,-0.17 -0.12,-0.16 -0.11,-0.16 -0.11,-0.15 -0.12,-0.14 -0.11,-0.14 -0.12,-0.14 -0.11,-0.13 -0.12,-0.12 -0.12,-0.12 -0.12,-0.12 -0.12,-0.1 -0.12,-0.11 -0.13,-0.1 -0.13,-0.09 -0.13,-0.09 -0.13,-0.08 -0.13,-0.08 -0.14,-0.07 -0.14,-0.06 -0.15,-0.07 -0.15,-0.06 -0.15,-0.05 -0.16,-0.05 -0.16,-0.04 -0.17,-0.04 -0.17,-0.03 -0.17,-0.03 -0.18,-0.02 -0.19,-0.02 -0.19,-0.02 c -0.34,-0.03 -0.79,-0.03 -0.79,-0.73 0,-0.38 0.31,-0.52 0.48,-0.52 0.91,0 2.06,0.14 3,0.14 1.11,0 2.55,-0.14 3.59,-0.14 0.18,0 0.69,0 0.69,0.77 0,0.45 -0.45,0.48 -0.58,0.48 -0.28,0.05 -1.54,0.11 -1.54,1.05 0,0.42 0.36,1.01 0.53,1.32 l 2.78,4.32 h 9.97 l -0.17,1.26 h -8.96 l 7.32,11.39 1.64,-11.39 0.17,-1.26 0.84,-5.78 c -0.14,-0.35 -0.36,-0.91 -2.4,-0.91 -0.43,0 -0.91,0 -0.91,-0.77 0,-0.14 0.09,-0.48 0.55,-0.48 1.01,0 3.48,0.14 4.5,0.14 0.62,0 1.42,-0.03 2.06,-0.03 0.62,-0.05 1.36,-0.11 1.98,-0.11 0.46,0 0.69,0.28 0.69,0.73 0,0.52 -0.41,0.52 -0.97,0.52 -2.01,0 -2.09,0.28 -2.2,1.12 l -3.06,21.5 c -0.11,0.72 -0.18,0.97 -0.83,0.97 -0.67,0 -0.88,-0.31 -1.19,-0.79 z"
           inkscape:connector-curvature="0"
           style="fill:#e22011;fill-opacity:1;stroke-width:0" /><path
           id="path3765"
           d="m 544.77518,424.21829 v 0.01 l -0.01,0.02 v 0.02 0.02 0.01 l -0.01,0.02 v 0.02 l -0.01,0.02 v 0.02 l -0.01,0.02 -0.01,0.02 -0.01,0.02 -0.01,0.01 -0.01,0.02 -0.01,0.02 -0.01,0.02 -0.02,0.01 -0.01,0.02 -0.02,0.02 -0.01,0.01 -0.02,0.02 -0.02,0.01 -0.02,0.01 -0.02,0.01 -0.02,0.01 -0.03,0.01 -0.02,0.01 -0.03,0.01 h -0.01 -0.02 l -0.01,0.01 h -0.02 -0.01 -0.02 -0.01 -0.02 c -0.25,0 -0.31,-0.08 -0.62,-0.42 l -2.55,-2.69 c -0.31,0.42 -2.26,3.11 -6.54,3.11 -8.47,0 -16.77,-7.5 -16.77,-15.38 0,-5.67 4.47,-9.82 10.7,-9.82 1.88,0 5.22,0.39 8.82,3.42 2.75,2.33 3.51,5.36 3.51,5.64 0,0.45 -0.42,0.45 -0.59,0.45 -0.46,0 -0.52,-0.17 -0.63,-0.54 -1.42,-4.79 -6.31,-7.71 -10.51,-7.71 -3.71,0 -7.82,1.99 -7.82,7.49 0,1.01 0.25,6.51 4.25,10.9 2.41,2.69 6.07,4.28 9.38,4.28 4.04,0 6.41,-2.92 6.41,-6.82 0,-0.97 -0.1,-1.22 -0.1,-1.43 0,-0.45 0.45,-0.45 0.63,-0.45 0.56,0 0.56,0.11 0.73,0.77 z"
           inkscape:connector-curvature="0"
           style="fill:#e22011;fill-opacity:1;stroke-width:0" /></g>    </g>
    <g
       id="g3935"
       transform="matrix(0.81808241,0,0,0.81808241,34.615439,50.099792)">
      <g
         word-spacing="normal"
         letter-spacing="normal"
         font-size-adjust="none"
         font-stretch="normal"
         font-weight="normal"
         font-variant="normal"
         font-style="normal"
         stroke-miterlimit="10.433"
         xml:space="preserve"
         transform="matrix(0.3,0,0,-0.3,-52.5,222.75)"
         id="g3933"
         style="font-style:normal;font-variant:normal;font-weight:normal;font-stretch:normal;letter-spacing:normal;word-spacing:normal;text-anchor:start;fill:none;fill-opacity:1;fill-rule:evenodd;stroke:#000000;stroke-linecap:butt;stroke-linejoin:miter;stroke-miterlimit:10.43299961;stroke-dasharray:none;stroke-dashoffset:0;stroke-opacity:1"><path
           id="path3931"
           d="m 459.91,409.14 -0.02,-0.07 -0.01,-0.08 -0.02,-0.07 -0.01,-0.08 -0.04,-0.16 -0.04,-0.16 -0.03,-0.16 -0.04,-0.16 -0.04,-0.16 -0.04,-0.16 -0.01,-0.08 -0.02,-0.07 -0.02,-0.07 -0.01,-0.07 -0.02,-0.07 -0.01,-0.07 -0.01,-0.06 -0.01,-0.06 -0.01,-0.06 -0.01,-0.05 -0.01,-0.05 -0.01,-0.04 -0.01,-0.04 v -0.04 -0.03 -0.02 c 0,-0.89 0.7,-1.35 1.43,-1.35 0.61,0 1.5,0.39 1.85,1.39 0.11,0.21 1.8,6.99 2,7.88 0.39,1.64 1.3,5.12 1.59,6.48 0.21,0.64 1.6,2.99 2.78,4.08 0.41,0.34 1.85,1.64 4,1.64 1.28,0 2.03,-0.59 2.08,-0.59 -1.48,-0.25 -2.58,-1.46 -2.58,-2.74 0,-0.79 0.55,-1.75 1.89,-1.75 1.35,0 2.74,1.14 2.74,2.94 0,1.75 -1.6,3.23 -4.13,3.23 -3.25,0 -5.43,-2.43 -6.39,-3.82 -0.39,2.23 -2.18,3.82 -4.53,3.82 -2.28,0 -3.23,-1.93 -3.69,-2.82 -0.89,-1.71 -1.54,-4.69 -1.54,-4.85 0,-0.5 0.5,-0.5 0.61,-0.5 0.5,0 0.54,0.07 0.84,1.16 0.84,3.53 1.84,5.92 3.64,5.92 0.84,0 1.55,-0.39 1.55,-2.28 0,-1.05 -0.16,-1.61 -0.8,-4.19 z"
           inkscape:connector-curvature="0"
           style="fill:#000000;stroke-width:0" /></g>    </g>
  </g>
</svg>
